M48
; DRILL file {KiCad (6.0.8)} date Wed Feb 14 20:35:05 2024
; FORMAT={-:-/ absolute / metric / decimal}
; #@! TF.CreationDate,2024-02-14T20:35:05-05:00
; #@! TF.GenerationSoftware,Kicad,Pcbnew,(6.0.8)
; #@! TF.FileFunction,Plated,1,2,PTH
FMAT,2
METRIC
; #@! TA.AperFunction,Plated,PTH,ComponentDrill
T1C1.020
%
G90
G05
T1
X129.54Y-66.64
X129.54Y-69.18
X129.54Y-71.72
X129.54Y-74.26
X129.54Y-76.8
X129.54Y-79.34
X129.54Y-81.88
X129.54Y-84.42
X129.54Y-86.96
X129.54Y-89.5
X129.54Y-92.04
X129.54Y-94.58
X129.54Y-97.12
X129.54Y-99.66
X129.54Y-102.2
X129.54Y-104.74
X129.54Y-107.28
X129.54Y-109.82
X129.54Y-112.36
X129.54Y-114.9
X135.89Y-114.67
X138.43Y-114.67
X140.97Y-114.67
X147.32Y-66.64
X147.32Y-69.18
X147.32Y-71.72
X147.32Y-74.26
X147.32Y-76.8
X147.32Y-79.34
X147.32Y-81.88
X147.32Y-84.42
X147.32Y-86.96
X147.32Y-89.5
X147.32Y-92.04
X147.32Y-94.58
X147.32Y-97.12
X147.32Y-99.66
X147.32Y-102.2
X147.32Y-104.74
X147.32Y-107.28
X147.32Y-109.82
X147.32Y-112.36
X147.32Y-114.9
X160.02Y-77.47
X160.02Y-80.01
X160.02Y-82.55
X160.02Y-85.09
X160.02Y-87.63
X160.02Y-90.17
X160.02Y-92.71
X160.02Y-95.25
X160.02Y-109.22
X160.02Y-111.76
X160.02Y-114.3
X160.02Y-116.84
X160.02Y-119.38
X160.02Y-121.92
X180.34Y-77.47
X180.34Y-80.01
X180.34Y-82.55
X180.34Y-85.09
X180.34Y-87.63
X180.34Y-90.17
X180.34Y-92.71
X180.34Y-95.25
T0
M30
