G04 #@! TF.GenerationSoftware,KiCad,Pcbnew,(6.0.8)*
G04 #@! TF.CreationDate,2024-02-14T20:34:25-05:00*
G04 #@! TF.ProjectId,boat,626f6174-2e6b-4696-9361-645f70636258,rev?*
G04 #@! TF.SameCoordinates,Original*
G04 #@! TF.FileFunction,Copper,L1,Top*
G04 #@! TF.FilePolarity,Positive*
%FSLAX46Y46*%
G04 Gerber Fmt 4.6, Leading zero omitted, Abs format (unit mm)*
G04 Created by KiCad (PCBNEW (6.0.8)) date 2024-02-14 20:34:25*
%MOMM*%
%LPD*%
G01*
G04 APERTURE LIST*
G04 #@! TA.AperFunction,ComponentPad*
%ADD10O,1.700000X1.700000*%
G04 #@! TD*
G04 #@! TA.AperFunction,SMDPad,CuDef*
%ADD11R,3.500000X1.700000*%
G04 #@! TD*
G04 #@! TA.AperFunction,ComponentPad*
%ADD12R,1.700000X1.700000*%
G04 #@! TD*
G04 #@! TA.AperFunction,SMDPad,CuDef*
%ADD13R,1.700000X3.500000*%
G04 #@! TD*
G04 #@! TA.AperFunction,Conductor*
%ADD14C,0.250000*%
G04 #@! TD*
G04 APERTURE END LIST*
D10*
X180340000Y-95250000D03*
X180340000Y-92710000D03*
X180340000Y-90170000D03*
X180340000Y-87630000D03*
X180340000Y-85090000D03*
X180340000Y-82550000D03*
X180340000Y-80010000D03*
X180340000Y-77470000D03*
X160020000Y-77470000D03*
X160020000Y-80010000D03*
X160020000Y-82550000D03*
X160020000Y-85090000D03*
X160020000Y-87630000D03*
X160020000Y-90170000D03*
X160020000Y-92710000D03*
X160020000Y-95250000D03*
D11*
X128640000Y-66640000D03*
D10*
X129540000Y-66640000D03*
X129540000Y-69180000D03*
D11*
X128640000Y-69180000D03*
D12*
X129540000Y-71720000D03*
D11*
X128640000Y-71720000D03*
D10*
X129540000Y-74260000D03*
D11*
X128640000Y-74260000D03*
X128640000Y-76800000D03*
D10*
X129540000Y-76800000D03*
X129540000Y-79340000D03*
D11*
X128640000Y-79340000D03*
D10*
X129540000Y-81880000D03*
D11*
X128640000Y-81880000D03*
X128640000Y-84420000D03*
D12*
X129540000Y-84420000D03*
D11*
X128640000Y-86960000D03*
D10*
X129540000Y-86960000D03*
X129540000Y-89500000D03*
D11*
X128640000Y-89500000D03*
D10*
X129540000Y-92040000D03*
D11*
X128640000Y-92040000D03*
D10*
X129540000Y-94580000D03*
D11*
X128640000Y-94580000D03*
X128640000Y-97120000D03*
D12*
X129540000Y-97120000D03*
D10*
X129540000Y-99660000D03*
D11*
X128640000Y-99660000D03*
D10*
X129540000Y-102200000D03*
D11*
X128640000Y-102200000D03*
D10*
X129540000Y-104740000D03*
D11*
X128640000Y-104740000D03*
D10*
X129540000Y-107280000D03*
D11*
X128640000Y-107280000D03*
X128640000Y-109820000D03*
D12*
X129540000Y-109820000D03*
D11*
X128640000Y-112360000D03*
D10*
X129540000Y-112360000D03*
X129540000Y-114900000D03*
D11*
X128640000Y-114900000D03*
X148220000Y-114900000D03*
D10*
X147320000Y-114900000D03*
X147320000Y-112360000D03*
D11*
X148220000Y-112360000D03*
X148220000Y-109820000D03*
D12*
X147320000Y-109820000D03*
D10*
X147320000Y-107280000D03*
D11*
X148220000Y-107280000D03*
D10*
X147320000Y-104740000D03*
D11*
X148220000Y-104740000D03*
D10*
X147320000Y-102200000D03*
D11*
X148220000Y-102200000D03*
X148220000Y-99660000D03*
D10*
X147320000Y-99660000D03*
D12*
X147320000Y-97120000D03*
D11*
X148220000Y-97120000D03*
D10*
X147320000Y-94580000D03*
D11*
X148220000Y-94580000D03*
X148220000Y-92040000D03*
D10*
X147320000Y-92040000D03*
D11*
X148220000Y-89500000D03*
D10*
X147320000Y-89500000D03*
D11*
X148220000Y-86960000D03*
D10*
X147320000Y-86960000D03*
D11*
X148220000Y-84420000D03*
D12*
X147320000Y-84420000D03*
D10*
X147320000Y-81880000D03*
D11*
X148220000Y-81880000D03*
D10*
X147320000Y-79340000D03*
D11*
X148220000Y-79340000D03*
X148220000Y-76800000D03*
D10*
X147320000Y-76800000D03*
D11*
X148220000Y-74260000D03*
D10*
X147320000Y-74260000D03*
D11*
X148220000Y-71720000D03*
D12*
X147320000Y-71720000D03*
D10*
X147320000Y-69180000D03*
D11*
X148220000Y-69180000D03*
X148220000Y-66640000D03*
D10*
X147320000Y-66640000D03*
D13*
X135890000Y-115570000D03*
D10*
X135890000Y-114670000D03*
D12*
X138430000Y-114670000D03*
D13*
X138430000Y-115570000D03*
X140970000Y-115570000D03*
D10*
X140970000Y-114670000D03*
D12*
X160020000Y-121920000D03*
D10*
X160020000Y-119380000D03*
X160020000Y-116840000D03*
X160020000Y-114300000D03*
X160020000Y-111760000D03*
X160020000Y-109220000D03*
D14*
X146145000Y-75625000D02*
X147320000Y-76800000D01*
X180340000Y-74930000D02*
X150365100Y-74930000D01*
X182118000Y-76708000D02*
X180340000Y-74930000D01*
X150295000Y-74859900D02*
X150295000Y-73085000D01*
X150295000Y-73085000D02*
X146145000Y-73085000D01*
X146145000Y-73085000D02*
X146145000Y-75625000D01*
X182118000Y-90931999D02*
X182118000Y-76708000D01*
X150365100Y-74930000D02*
X150295000Y-74859900D01*
X180340000Y-92710000D02*
X182118000Y-90931999D01*
X147320000Y-102200000D02*
X168310000Y-102200000D01*
X168310000Y-102200000D02*
X180340000Y-90170000D01*
X147320000Y-94580000D02*
X152112100Y-94580000D01*
X157792100Y-88900000D02*
X168910000Y-88900000D01*
X168910000Y-88900000D02*
X180340000Y-77470000D01*
X152112100Y-94580000D02*
X157792100Y-88900000D01*
X153070000Y-86960000D02*
X160020000Y-80010000D01*
X147320000Y-86960000D02*
X153070000Y-86960000D01*
X130715100Y-94580000D02*
X144590300Y-108455200D01*
X129540000Y-94580000D02*
X130715100Y-94580000D01*
X150460100Y-108455200D02*
X158844900Y-116840000D01*
X160020000Y-116840000D02*
X158844900Y-116840000D01*
X144590300Y-108455200D02*
X150460100Y-108455200D01*
X158844900Y-114300000D02*
X150649500Y-106104600D01*
X160020000Y-114300000D02*
X158844900Y-114300000D01*
X150649500Y-106104600D02*
X144779700Y-106104600D01*
X144779700Y-106104600D02*
X130715100Y-92040000D01*
X129540000Y-92040000D02*
X130715100Y-92040000D01*
X153000100Y-103375200D02*
X158844900Y-109220000D01*
X160020000Y-109220000D02*
X158844900Y-109220000D01*
X144590300Y-103375200D02*
X153000100Y-103375200D01*
X130715100Y-89500000D02*
X144590300Y-103375200D01*
X129540000Y-89500000D02*
X130715100Y-89500000D01*
G04 #@! TA.AperFunction,Conductor*
G36*
X187930018Y-61470000D02*
G01*
X187944851Y-61472310D01*
X187944855Y-61472310D01*
X187953724Y-61473691D01*
X187972436Y-61471244D01*
X187995366Y-61470353D01*
X188298503Y-61486240D01*
X188311617Y-61487618D01*
X188639898Y-61539613D01*
X188652798Y-61542355D01*
X188973846Y-61628379D01*
X188986382Y-61632453D01*
X189257468Y-61736513D01*
X189296672Y-61751562D01*
X189308720Y-61756926D01*
X189604867Y-61907820D01*
X189616288Y-61914414D01*
X189895040Y-62095437D01*
X189905710Y-62103190D01*
X190164004Y-62312352D01*
X190173805Y-62321177D01*
X190408823Y-62556195D01*
X190417648Y-62565996D01*
X190626810Y-62824290D01*
X190634563Y-62834960D01*
X190815586Y-63113712D01*
X190822180Y-63125133D01*
X190973074Y-63421280D01*
X190978438Y-63433328D01*
X191074847Y-63684479D01*
X191097545Y-63743610D01*
X191101621Y-63756154D01*
X191187645Y-64077202D01*
X191190387Y-64090102D01*
X191242382Y-64418383D01*
X191243760Y-64431500D01*
X191259262Y-64727298D01*
X191257935Y-64753273D01*
X191257691Y-64754843D01*
X191257691Y-64754849D01*
X191256309Y-64763724D01*
X191257473Y-64772626D01*
X191257473Y-64772628D01*
X191260436Y-64795283D01*
X191261500Y-64811621D01*
X191261500Y-129490633D01*
X191260000Y-129510018D01*
X191257690Y-129524851D01*
X191257690Y-129524855D01*
X191256309Y-129533724D01*
X191258136Y-129547693D01*
X191258756Y-129552433D01*
X191259647Y-129575366D01*
X191244173Y-129870613D01*
X191243760Y-129878501D01*
X191242382Y-129891617D01*
X191190387Y-130219898D01*
X191187645Y-130232798D01*
X191138621Y-130415761D01*
X191101621Y-130553846D01*
X191097547Y-130566382D01*
X191056839Y-130672431D01*
X190978438Y-130876672D01*
X190973074Y-130888720D01*
X190822180Y-131184867D01*
X190815586Y-131196288D01*
X190634563Y-131475040D01*
X190626810Y-131485710D01*
X190417648Y-131744004D01*
X190408823Y-131753805D01*
X190173805Y-131988823D01*
X190164004Y-131997648D01*
X189905710Y-132206810D01*
X189895040Y-132214563D01*
X189616288Y-132395586D01*
X189604867Y-132402180D01*
X189308720Y-132553074D01*
X189296671Y-132558438D01*
X188986382Y-132677547D01*
X188973846Y-132681621D01*
X188652798Y-132767645D01*
X188639898Y-132770387D01*
X188311617Y-132822382D01*
X188298501Y-132823760D01*
X188264848Y-132825524D01*
X188002702Y-132839262D01*
X187976727Y-132837935D01*
X187975157Y-132837691D01*
X187975151Y-132837691D01*
X187966276Y-132836309D01*
X187957374Y-132837473D01*
X187957372Y-132837473D01*
X187942323Y-132839441D01*
X187934714Y-132840436D01*
X187918379Y-132841500D01*
X121969367Y-132841500D01*
X121949982Y-132840000D01*
X121935149Y-132837690D01*
X121935145Y-132837690D01*
X121926276Y-132836309D01*
X121907564Y-132838756D01*
X121884634Y-132839647D01*
X121581497Y-132823760D01*
X121568383Y-132822382D01*
X121240102Y-132770387D01*
X121227202Y-132767645D01*
X120906154Y-132681621D01*
X120893618Y-132677547D01*
X120583329Y-132558438D01*
X120571280Y-132553074D01*
X120275133Y-132402180D01*
X120263712Y-132395586D01*
X119984960Y-132214563D01*
X119974290Y-132206810D01*
X119715996Y-131997648D01*
X119706195Y-131988823D01*
X119471177Y-131753805D01*
X119462352Y-131744004D01*
X119253190Y-131485710D01*
X119245437Y-131475040D01*
X119064414Y-131196288D01*
X119057820Y-131184867D01*
X118906926Y-130888720D01*
X118901562Y-130876672D01*
X118823161Y-130672431D01*
X118782453Y-130566382D01*
X118778379Y-130553846D01*
X118741380Y-130415761D01*
X118692355Y-130232798D01*
X118689613Y-130219898D01*
X118637618Y-129891617D01*
X118636240Y-129878501D01*
X118635827Y-129870613D01*
X118620932Y-129586413D01*
X118622506Y-129558910D01*
X118622770Y-129557341D01*
X118623576Y-129552552D01*
X118623729Y-129540000D01*
X118620560Y-129517869D01*
X119806689Y-129517869D01*
X119806936Y-129522153D01*
X119806936Y-129522154D01*
X119808245Y-129544860D01*
X119823238Y-129804883D01*
X119824063Y-129809088D01*
X119824064Y-129809096D01*
X119849528Y-129938887D01*
X119878586Y-130086995D01*
X119879973Y-130091045D01*
X119879974Y-130091050D01*
X119955557Y-130311807D01*
X119971710Y-130358986D01*
X119973637Y-130362817D01*
X120061310Y-130537135D01*
X120100885Y-130615822D01*
X120263721Y-130852750D01*
X120457206Y-131065388D01*
X120460501Y-131068143D01*
X120460502Y-131068144D01*
X120511258Y-131110582D01*
X120677759Y-131249798D01*
X120921298Y-131402571D01*
X121183318Y-131520877D01*
X121187437Y-131522097D01*
X121454857Y-131601311D01*
X121454862Y-131601312D01*
X121458970Y-131602529D01*
X121463204Y-131603177D01*
X121463209Y-131603178D01*
X121711811Y-131641219D01*
X121743153Y-131646015D01*
X121889485Y-131648314D01*
X122026317Y-131650464D01*
X122026323Y-131650464D01*
X122030608Y-131650531D01*
X122034860Y-131650016D01*
X122034868Y-131650016D01*
X122311756Y-131616508D01*
X122311761Y-131616507D01*
X122316017Y-131615992D01*
X122594097Y-131543039D01*
X122859704Y-131433021D01*
X123107922Y-131287974D01*
X123334159Y-131110582D01*
X123375285Y-131068144D01*
X123531244Y-130907206D01*
X123534227Y-130904128D01*
X123536760Y-130900680D01*
X123536764Y-130900675D01*
X123701887Y-130675886D01*
X123704425Y-130672431D01*
X123765351Y-130560220D01*
X123839554Y-130423555D01*
X123839555Y-130423553D01*
X123841604Y-130419779D01*
X123943225Y-130150848D01*
X123999680Y-129904350D01*
X124006449Y-129874797D01*
X124006450Y-129874793D01*
X124007407Y-129870613D01*
X124021675Y-129710748D01*
X124032743Y-129586726D01*
X124032743Y-129586724D01*
X124032963Y-129584260D01*
X124033086Y-129572576D01*
X124033401Y-129542484D01*
X124033401Y-129542483D01*
X124033427Y-129540000D01*
X124031918Y-129517869D01*
X185846689Y-129517869D01*
X185846936Y-129522153D01*
X185846936Y-129522154D01*
X185848245Y-129544860D01*
X185863238Y-129804883D01*
X185864063Y-129809088D01*
X185864064Y-129809096D01*
X185889528Y-129938887D01*
X185918586Y-130086995D01*
X185919973Y-130091045D01*
X185919974Y-130091050D01*
X185995557Y-130311807D01*
X186011710Y-130358986D01*
X186013637Y-130362817D01*
X186101310Y-130537135D01*
X186140885Y-130615822D01*
X186303721Y-130852750D01*
X186497206Y-131065388D01*
X186500501Y-131068143D01*
X186500502Y-131068144D01*
X186551258Y-131110582D01*
X186717759Y-131249798D01*
X186961298Y-131402571D01*
X187223318Y-131520877D01*
X187227437Y-131522097D01*
X187494857Y-131601311D01*
X187494862Y-131601312D01*
X187498970Y-131602529D01*
X187503204Y-131603177D01*
X187503209Y-131603178D01*
X187751811Y-131641219D01*
X187783153Y-131646015D01*
X187929485Y-131648314D01*
X188066317Y-131650464D01*
X188066323Y-131650464D01*
X188070608Y-131650531D01*
X188074860Y-131650016D01*
X188074868Y-131650016D01*
X188351756Y-131616508D01*
X188351761Y-131616507D01*
X188356017Y-131615992D01*
X188634097Y-131543039D01*
X188899704Y-131433021D01*
X189147922Y-131287974D01*
X189374159Y-131110582D01*
X189415285Y-131068144D01*
X189571244Y-130907206D01*
X189574227Y-130904128D01*
X189576760Y-130900680D01*
X189576764Y-130900675D01*
X189741887Y-130675886D01*
X189744425Y-130672431D01*
X189805351Y-130560220D01*
X189879554Y-130423555D01*
X189879555Y-130423553D01*
X189881604Y-130419779D01*
X189983225Y-130150848D01*
X190039680Y-129904350D01*
X190046449Y-129874797D01*
X190046450Y-129874793D01*
X190047407Y-129870613D01*
X190061675Y-129710748D01*
X190072743Y-129586726D01*
X190072743Y-129586724D01*
X190072963Y-129584260D01*
X190073086Y-129572576D01*
X190073401Y-129542484D01*
X190073401Y-129542483D01*
X190073427Y-129540000D01*
X190070326Y-129494514D01*
X190054165Y-129257452D01*
X190054164Y-129257446D01*
X190053873Y-129253175D01*
X190049336Y-129231264D01*
X189996443Y-128975855D01*
X189995574Y-128971658D01*
X189899607Y-128700657D01*
X189767750Y-128445188D01*
X189754488Y-128426317D01*
X189604904Y-128213482D01*
X189602441Y-128209977D01*
X189406740Y-127999378D01*
X189184268Y-127817287D01*
X188939142Y-127667073D01*
X188921048Y-127659130D01*
X188679830Y-127553243D01*
X188675898Y-127551517D01*
X188649963Y-127544129D01*
X188403534Y-127473932D01*
X188403535Y-127473932D01*
X188399406Y-127472756D01*
X188186704Y-127442485D01*
X188119036Y-127432854D01*
X188119034Y-127432854D01*
X188114784Y-127432249D01*
X188110495Y-127432227D01*
X188110488Y-127432226D01*
X187831583Y-127430765D01*
X187831576Y-127430765D01*
X187827297Y-127430743D01*
X187823053Y-127431302D01*
X187823049Y-127431302D01*
X187697660Y-127447810D01*
X187542266Y-127468268D01*
X187538126Y-127469401D01*
X187538124Y-127469401D01*
X187461311Y-127490415D01*
X187264964Y-127544129D01*
X187261016Y-127545813D01*
X187004476Y-127655237D01*
X187004472Y-127655239D01*
X187000524Y-127656923D01*
X186875960Y-127731473D01*
X186757521Y-127802357D01*
X186757517Y-127802360D01*
X186753839Y-127804561D01*
X186529472Y-127984313D01*
X186331577Y-128192851D01*
X186163814Y-128426317D01*
X186029288Y-128680392D01*
X185930489Y-128950373D01*
X185869245Y-129231264D01*
X185868909Y-129235534D01*
X185847196Y-129511428D01*
X185847195Y-129511428D01*
X185847196Y-129511430D01*
X185846689Y-129517869D01*
X124031918Y-129517869D01*
X124030326Y-129494514D01*
X124014165Y-129257452D01*
X124014164Y-129257446D01*
X124013873Y-129253175D01*
X124009336Y-129231264D01*
X123956443Y-128975855D01*
X123955574Y-128971658D01*
X123859607Y-128700657D01*
X123727750Y-128445188D01*
X123714488Y-128426317D01*
X123564904Y-128213482D01*
X123562441Y-128209977D01*
X123366740Y-127999378D01*
X123144268Y-127817287D01*
X122899142Y-127667073D01*
X122881048Y-127659130D01*
X122639830Y-127553243D01*
X122635898Y-127551517D01*
X122609963Y-127544129D01*
X122363534Y-127473932D01*
X122363535Y-127473932D01*
X122359406Y-127472756D01*
X122146704Y-127442485D01*
X122079036Y-127432854D01*
X122079034Y-127432854D01*
X122074784Y-127432249D01*
X122070495Y-127432227D01*
X122070488Y-127432226D01*
X121791583Y-127430765D01*
X121791576Y-127430765D01*
X121787297Y-127430743D01*
X121783053Y-127431302D01*
X121783049Y-127431302D01*
X121657660Y-127447810D01*
X121502266Y-127468268D01*
X121498126Y-127469401D01*
X121498124Y-127469401D01*
X121421311Y-127490415D01*
X121224964Y-127544129D01*
X121221016Y-127545813D01*
X120964476Y-127655237D01*
X120964472Y-127655239D01*
X120960524Y-127656923D01*
X120835960Y-127731473D01*
X120717521Y-127802357D01*
X120717517Y-127802360D01*
X120713839Y-127804561D01*
X120489472Y-127984313D01*
X120291577Y-128192851D01*
X120123814Y-128426317D01*
X119989288Y-128680392D01*
X119890489Y-128950373D01*
X119829245Y-129231264D01*
X119828909Y-129235534D01*
X119807196Y-129511428D01*
X119807195Y-129511428D01*
X119807196Y-129511430D01*
X119806689Y-129517869D01*
X118620560Y-129517869D01*
X118619773Y-129512376D01*
X118618500Y-129494514D01*
X118618500Y-122818134D01*
X158661500Y-122818134D01*
X158668255Y-122880316D01*
X158719385Y-123016705D01*
X158806739Y-123133261D01*
X158923295Y-123220615D01*
X159059684Y-123271745D01*
X159121866Y-123278500D01*
X160918134Y-123278500D01*
X160980316Y-123271745D01*
X161116705Y-123220615D01*
X161233261Y-123133261D01*
X161320615Y-123016705D01*
X161371745Y-122880316D01*
X161378500Y-122818134D01*
X161378500Y-121021866D01*
X161371745Y-120959684D01*
X161320615Y-120823295D01*
X161233261Y-120706739D01*
X161116705Y-120619385D01*
X160997687Y-120574767D01*
X160940923Y-120532125D01*
X160916223Y-120465564D01*
X160931430Y-120396215D01*
X160952977Y-120367535D01*
X161054052Y-120266812D01*
X161060730Y-120258965D01*
X161185003Y-120086020D01*
X161190313Y-120077183D01*
X161284670Y-119886267D01*
X161288469Y-119876672D01*
X161350377Y-119672910D01*
X161352555Y-119662837D01*
X161353986Y-119651962D01*
X161351775Y-119637778D01*
X161338617Y-119634000D01*
X158703225Y-119634000D01*
X158689694Y-119637973D01*
X158688257Y-119647966D01*
X158718565Y-119782446D01*
X158721645Y-119792275D01*
X158801770Y-119989603D01*
X158806413Y-119998794D01*
X158917694Y-120180388D01*
X158923777Y-120188699D01*
X159063213Y-120349667D01*
X159070577Y-120356879D01*
X159075522Y-120360985D01*
X159115156Y-120419889D01*
X159116653Y-120490870D01*
X159079537Y-120551392D01*
X159039264Y-120575910D01*
X158931705Y-120616232D01*
X158931704Y-120616233D01*
X158923295Y-120619385D01*
X158806739Y-120706739D01*
X158719385Y-120823295D01*
X158668255Y-120959684D01*
X158661500Y-121021866D01*
X158661500Y-122818134D01*
X118618500Y-122818134D01*
X118618500Y-115798134D01*
X126381500Y-115798134D01*
X126388255Y-115860316D01*
X126439385Y-115996705D01*
X126526739Y-116113261D01*
X126643295Y-116200615D01*
X126779684Y-116251745D01*
X126841866Y-116258500D01*
X129510826Y-116258500D01*
X129515443Y-116258585D01*
X129596673Y-116261564D01*
X129596677Y-116261564D01*
X129601837Y-116261753D01*
X129606957Y-116261097D01*
X129606959Y-116261097D01*
X129619261Y-116259521D01*
X129635271Y-116258500D01*
X130438134Y-116258500D01*
X130500316Y-116251745D01*
X130636705Y-116200615D01*
X130753261Y-116113261D01*
X130840615Y-115996705D01*
X130891745Y-115860316D01*
X130898500Y-115798134D01*
X130898500Y-114997856D01*
X130899578Y-114981409D01*
X130901092Y-114969908D01*
X130901529Y-114966590D01*
X130902315Y-114934420D01*
X130903074Y-114903365D01*
X130903074Y-114903361D01*
X130903156Y-114900000D01*
X130898924Y-114848524D01*
X130898500Y-114838200D01*
X130898500Y-114636695D01*
X134527251Y-114636695D01*
X134527548Y-114641848D01*
X134527548Y-114641851D01*
X134531291Y-114706763D01*
X134531500Y-114714016D01*
X134531500Y-117368134D01*
X134538255Y-117430316D01*
X134589385Y-117566705D01*
X134676739Y-117683261D01*
X134793295Y-117770615D01*
X134929684Y-117821745D01*
X134991866Y-117828500D01*
X136788134Y-117828500D01*
X136850316Y-117821745D01*
X136986705Y-117770615D01*
X137084436Y-117697370D01*
X137150941Y-117672522D01*
X137220324Y-117687575D01*
X137235562Y-117697368D01*
X137333295Y-117770615D01*
X137469684Y-117821745D01*
X137531866Y-117828500D01*
X139328134Y-117828500D01*
X139390316Y-117821745D01*
X139526705Y-117770615D01*
X139624436Y-117697370D01*
X139690941Y-117672522D01*
X139760324Y-117687575D01*
X139775562Y-117697368D01*
X139873295Y-117770615D01*
X140009684Y-117821745D01*
X140071866Y-117828500D01*
X141868134Y-117828500D01*
X141930316Y-117821745D01*
X142066705Y-117770615D01*
X142183261Y-117683261D01*
X142270615Y-117566705D01*
X142321745Y-117430316D01*
X142328500Y-117368134D01*
X142328500Y-114767856D01*
X142329578Y-114751409D01*
X142331092Y-114739908D01*
X142331529Y-114736590D01*
X142333156Y-114670000D01*
X142328924Y-114618524D01*
X142328500Y-114608200D01*
X142328500Y-113771866D01*
X142321745Y-113709684D01*
X142270615Y-113573295D01*
X142183261Y-113456739D01*
X142066705Y-113369385D01*
X141930316Y-113318255D01*
X141868134Y-113311500D01*
X140984985Y-113311500D01*
X140983446Y-113311491D01*
X140880081Y-113310228D01*
X140880079Y-113310228D01*
X140874911Y-113310165D01*
X140869797Y-113310948D01*
X140866289Y-113311193D01*
X140857496Y-113311500D01*
X140071866Y-113311500D01*
X140009684Y-113318255D01*
X139873295Y-113369385D01*
X139844824Y-113390723D01*
X139775565Y-113442630D01*
X139709059Y-113467478D01*
X139639676Y-113452425D01*
X139624435Y-113442630D01*
X139555176Y-113390723D01*
X139526705Y-113369385D01*
X139390316Y-113318255D01*
X139328134Y-113311500D01*
X137531866Y-113311500D01*
X137469684Y-113318255D01*
X137333295Y-113369385D01*
X137304824Y-113390723D01*
X137235565Y-113442630D01*
X137169059Y-113467478D01*
X137099676Y-113452425D01*
X137084435Y-113442630D01*
X137015176Y-113390723D01*
X136986705Y-113369385D01*
X136850316Y-113318255D01*
X136788134Y-113311500D01*
X135904985Y-113311500D01*
X135903446Y-113311491D01*
X135800081Y-113310228D01*
X135800079Y-113310228D01*
X135794911Y-113310165D01*
X135789797Y-113310948D01*
X135786289Y-113311193D01*
X135777496Y-113311500D01*
X134991866Y-113311500D01*
X134929684Y-113318255D01*
X134793295Y-113369385D01*
X134676739Y-113456739D01*
X134589385Y-113573295D01*
X134538255Y-113709684D01*
X134531500Y-113771866D01*
X134531500Y-114590219D01*
X134530787Y-114603607D01*
X134527251Y-114636695D01*
X130898500Y-114636695D01*
X130898500Y-114001866D01*
X130891745Y-113939684D01*
X130840615Y-113803295D01*
X130767370Y-113705564D01*
X130742522Y-113639059D01*
X130757575Y-113569676D01*
X130767370Y-113554435D01*
X130816920Y-113488321D01*
X130840615Y-113456705D01*
X130891745Y-113320316D01*
X130898500Y-113258134D01*
X130898500Y-112457856D01*
X130899578Y-112441409D01*
X130901092Y-112429908D01*
X130901529Y-112426590D01*
X130903156Y-112360000D01*
X130898924Y-112308524D01*
X130898500Y-112298200D01*
X130898500Y-111461866D01*
X130891745Y-111399684D01*
X130840615Y-111263295D01*
X130767370Y-111165564D01*
X130742522Y-111099059D01*
X130757575Y-111029676D01*
X130767370Y-111014435D01*
X130840615Y-110916705D01*
X130891745Y-110780316D01*
X130898500Y-110718134D01*
X130898500Y-108921866D01*
X130891745Y-108859684D01*
X130840615Y-108723295D01*
X130767370Y-108625564D01*
X130742522Y-108559059D01*
X130757575Y-108489676D01*
X130767370Y-108474435D01*
X130840615Y-108376705D01*
X130891745Y-108240316D01*
X130898500Y-108178134D01*
X130898500Y-107377856D01*
X130899578Y-107361409D01*
X130901092Y-107349908D01*
X130901529Y-107346590D01*
X130903156Y-107280000D01*
X130898924Y-107228524D01*
X130898500Y-107218200D01*
X130898500Y-106381866D01*
X130891745Y-106319684D01*
X130840615Y-106183295D01*
X130767370Y-106085564D01*
X130742522Y-106019059D01*
X130757575Y-105949676D01*
X130767370Y-105934435D01*
X130835229Y-105843891D01*
X130840615Y-105836705D01*
X130891745Y-105700316D01*
X130898500Y-105638134D01*
X130898500Y-104837856D01*
X130899578Y-104821409D01*
X130901092Y-104809908D01*
X130901529Y-104806590D01*
X130903156Y-104740000D01*
X130898924Y-104688524D01*
X130898500Y-104678200D01*
X130898500Y-103841866D01*
X130891745Y-103779684D01*
X130840615Y-103643295D01*
X130767370Y-103545564D01*
X130742522Y-103479059D01*
X130757575Y-103409676D01*
X130767370Y-103394435D01*
X130835229Y-103303891D01*
X130840615Y-103296705D01*
X130891745Y-103160316D01*
X130898500Y-103098134D01*
X130898500Y-102297856D01*
X130899578Y-102281409D01*
X130901092Y-102269908D01*
X130901529Y-102266590D01*
X130903156Y-102200000D01*
X130898924Y-102148524D01*
X130898500Y-102138200D01*
X130898500Y-101301866D01*
X130891745Y-101239684D01*
X130840615Y-101103295D01*
X130767370Y-101005564D01*
X130742522Y-100939059D01*
X130757575Y-100869676D01*
X130767370Y-100854435D01*
X130835229Y-100763891D01*
X130840615Y-100756705D01*
X130891745Y-100620316D01*
X130898500Y-100558134D01*
X130898500Y-99757856D01*
X130899578Y-99741409D01*
X130901092Y-99729908D01*
X130901529Y-99726590D01*
X130903156Y-99660000D01*
X130898924Y-99608524D01*
X130898500Y-99598200D01*
X130898500Y-98761866D01*
X130891745Y-98699684D01*
X130840615Y-98563295D01*
X130767370Y-98465564D01*
X130742522Y-98399059D01*
X130757575Y-98329676D01*
X130767370Y-98314435D01*
X130835229Y-98223891D01*
X130840615Y-98216705D01*
X130891745Y-98080316D01*
X130898500Y-98018134D01*
X130898500Y-96221866D01*
X130891745Y-96159684D01*
X130840615Y-96023295D01*
X130767370Y-95925564D01*
X130742522Y-95859059D01*
X130757575Y-95789676D01*
X130767370Y-95774435D01*
X130785711Y-95749963D01*
X130842571Y-95707449D01*
X130913390Y-95702425D01*
X130975631Y-95736435D01*
X137537051Y-102297856D01*
X144086648Y-108847453D01*
X144094188Y-108855739D01*
X144098300Y-108862218D01*
X144104077Y-108867643D01*
X144147951Y-108908843D01*
X144150793Y-108911598D01*
X144170530Y-108931335D01*
X144173727Y-108933815D01*
X144182747Y-108941518D01*
X144214979Y-108971786D01*
X144221925Y-108975605D01*
X144221928Y-108975607D01*
X144232734Y-108981548D01*
X144249253Y-108992399D01*
X144265259Y-109004814D01*
X144272528Y-109007959D01*
X144272532Y-109007962D01*
X144305837Y-109022374D01*
X144316487Y-109027591D01*
X144355240Y-109048895D01*
X144362915Y-109050866D01*
X144362916Y-109050866D01*
X144374862Y-109053933D01*
X144393567Y-109060337D01*
X144412155Y-109068381D01*
X144419978Y-109069620D01*
X144419988Y-109069623D01*
X144455824Y-109075299D01*
X144467444Y-109077705D01*
X144502589Y-109086728D01*
X144510270Y-109088700D01*
X144530524Y-109088700D01*
X144550234Y-109090251D01*
X144570243Y-109093420D01*
X144578135Y-109092674D01*
X144614261Y-109089259D01*
X144626119Y-109088700D01*
X145835500Y-109088700D01*
X145903621Y-109108702D01*
X145950114Y-109162358D01*
X145961500Y-109214700D01*
X145961500Y-110718134D01*
X145968255Y-110780316D01*
X146019385Y-110916705D01*
X146092630Y-111014435D01*
X146117478Y-111080941D01*
X146102425Y-111150324D01*
X146092632Y-111165562D01*
X146019385Y-111263295D01*
X145968255Y-111399684D01*
X145961500Y-111461866D01*
X145961500Y-112280219D01*
X145960787Y-112293607D01*
X145957251Y-112326695D01*
X145957548Y-112331848D01*
X145957548Y-112331851D01*
X145961291Y-112396763D01*
X145961500Y-112404016D01*
X145961500Y-113258134D01*
X145968255Y-113320316D01*
X146019385Y-113456705D01*
X146043080Y-113488321D01*
X146092630Y-113554435D01*
X146117478Y-113620941D01*
X146102425Y-113690324D01*
X146092632Y-113705562D01*
X146019385Y-113803295D01*
X145968255Y-113939684D01*
X145961500Y-114001866D01*
X145961500Y-114820219D01*
X145960787Y-114833607D01*
X145957251Y-114866695D01*
X145957548Y-114871848D01*
X145957548Y-114871851D01*
X145961291Y-114936763D01*
X145961500Y-114944016D01*
X145961500Y-115798134D01*
X145968255Y-115860316D01*
X146019385Y-115996705D01*
X146106739Y-116113261D01*
X146223295Y-116200615D01*
X146359684Y-116251745D01*
X146421866Y-116258500D01*
X147290826Y-116258500D01*
X147295443Y-116258585D01*
X147376673Y-116261564D01*
X147376677Y-116261564D01*
X147381837Y-116261753D01*
X147386957Y-116261097D01*
X147386959Y-116261097D01*
X147399261Y-116259521D01*
X147415271Y-116258500D01*
X150018134Y-116258500D01*
X150080316Y-116251745D01*
X150216705Y-116200615D01*
X150333261Y-116113261D01*
X150420615Y-115996705D01*
X150471745Y-115860316D01*
X150478500Y-115798134D01*
X150478500Y-114001866D01*
X150471745Y-113939684D01*
X150420615Y-113803295D01*
X150347370Y-113705564D01*
X150322522Y-113639059D01*
X150337575Y-113569676D01*
X150347370Y-113554435D01*
X150396920Y-113488321D01*
X150420615Y-113456705D01*
X150471745Y-113320316D01*
X150478500Y-113258134D01*
X150478500Y-111461866D01*
X150471745Y-111399684D01*
X150420615Y-111263295D01*
X150347370Y-111165564D01*
X150322522Y-111099059D01*
X150337575Y-111029676D01*
X150347370Y-111014435D01*
X150420615Y-110916705D01*
X150471745Y-110780316D01*
X150478500Y-110718134D01*
X150478500Y-109673694D01*
X150498502Y-109605573D01*
X150552158Y-109559080D01*
X150622432Y-109548976D01*
X150687012Y-109578470D01*
X150693595Y-109584599D01*
X154529647Y-113420652D01*
X158341248Y-117232253D01*
X158348788Y-117240539D01*
X158352900Y-117247018D01*
X158358677Y-117252443D01*
X158402551Y-117293643D01*
X158405393Y-117296398D01*
X158425130Y-117316135D01*
X158428327Y-117318615D01*
X158437347Y-117326318D01*
X158469579Y-117356586D01*
X158476525Y-117360405D01*
X158476528Y-117360407D01*
X158487334Y-117366348D01*
X158503853Y-117377199D01*
X158519859Y-117389614D01*
X158527128Y-117392759D01*
X158527132Y-117392762D01*
X158560437Y-117407174D01*
X158571087Y-117412391D01*
X158609840Y-117433695D01*
X158617515Y-117435666D01*
X158617516Y-117435666D01*
X158629462Y-117438733D01*
X158648167Y-117445137D01*
X158666755Y-117453181D01*
X158674578Y-117454420D01*
X158674588Y-117454423D01*
X158710424Y-117460099D01*
X158722044Y-117462505D01*
X158757189Y-117471528D01*
X158759168Y-117472036D01*
X158764869Y-117473500D01*
X158764633Y-117474420D01*
X158823412Y-117500054D01*
X158849979Y-117530845D01*
X158919987Y-117645088D01*
X159066250Y-117813938D01*
X159238126Y-117956632D01*
X159311955Y-117999774D01*
X159360679Y-118051412D01*
X159373750Y-118121195D01*
X159347019Y-118186967D01*
X159306562Y-118220327D01*
X159298457Y-118224546D01*
X159289738Y-118230036D01*
X159119433Y-118357905D01*
X159111726Y-118364748D01*
X158964590Y-118518717D01*
X158958104Y-118526727D01*
X158838098Y-118702649D01*
X158833000Y-118711623D01*
X158743338Y-118904783D01*
X158739775Y-118914470D01*
X158684389Y-119114183D01*
X158685912Y-119122607D01*
X158698292Y-119126000D01*
X161338344Y-119126000D01*
X161351875Y-119122027D01*
X161353180Y-119112947D01*
X161311214Y-118945875D01*
X161307894Y-118936124D01*
X161222972Y-118740814D01*
X161218105Y-118731739D01*
X161102426Y-118552926D01*
X161096136Y-118544757D01*
X160952806Y-118387240D01*
X160945273Y-118380215D01*
X160778139Y-118248222D01*
X160769556Y-118242520D01*
X160732602Y-118222120D01*
X160682631Y-118171687D01*
X160667859Y-118102245D01*
X160692975Y-118035839D01*
X160720327Y-118009232D01*
X160743797Y-117992491D01*
X160899860Y-117881173D01*
X161058096Y-117723489D01*
X161188453Y-117542077D01*
X161223321Y-117471528D01*
X161285136Y-117346453D01*
X161285137Y-117346451D01*
X161287430Y-117341811D01*
X161352370Y-117128069D01*
X161381529Y-116906590D01*
X161383156Y-116840000D01*
X161364852Y-116617361D01*
X161310431Y-116400702D01*
X161221354Y-116195840D01*
X161100014Y-116008277D01*
X160949670Y-115843051D01*
X160945619Y-115839852D01*
X160945615Y-115839848D01*
X160778414Y-115707800D01*
X160778410Y-115707798D01*
X160774359Y-115704598D01*
X160733053Y-115681796D01*
X160683084Y-115631364D01*
X160668312Y-115561921D01*
X160693428Y-115495516D01*
X160720780Y-115468909D01*
X160764603Y-115437650D01*
X160899860Y-115341173D01*
X161058096Y-115183489D01*
X161188453Y-115002077D01*
X161207648Y-114963240D01*
X161285136Y-114806453D01*
X161285137Y-114806451D01*
X161287430Y-114801811D01*
X161352370Y-114588069D01*
X161381529Y-114366590D01*
X161383156Y-114300000D01*
X161364852Y-114077361D01*
X161310431Y-113860702D01*
X161221354Y-113655840D01*
X161100014Y-113468277D01*
X160949670Y-113303051D01*
X160945619Y-113299852D01*
X160945615Y-113299848D01*
X160778414Y-113167800D01*
X160778410Y-113167798D01*
X160774359Y-113164598D01*
X160733053Y-113141796D01*
X160683084Y-113091364D01*
X160668312Y-113021921D01*
X160693428Y-112955516D01*
X160720780Y-112928909D01*
X160764603Y-112897650D01*
X160899860Y-112801173D01*
X161058096Y-112643489D01*
X161117594Y-112560689D01*
X161185435Y-112466277D01*
X161188453Y-112462077D01*
X161207648Y-112423240D01*
X161285136Y-112266453D01*
X161285137Y-112266451D01*
X161287430Y-112261811D01*
X161352370Y-112048069D01*
X161381529Y-111826590D01*
X161383156Y-111760000D01*
X161364852Y-111537361D01*
X161310431Y-111320702D01*
X161221354Y-111115840D01*
X161100014Y-110928277D01*
X160949670Y-110763051D01*
X160945619Y-110759852D01*
X160945615Y-110759848D01*
X160778414Y-110627800D01*
X160778410Y-110627798D01*
X160774359Y-110624598D01*
X160733053Y-110601796D01*
X160683084Y-110551364D01*
X160668312Y-110481921D01*
X160693428Y-110415516D01*
X160720780Y-110388909D01*
X160764603Y-110357650D01*
X160899860Y-110261173D01*
X161058096Y-110103489D01*
X161188453Y-109922077D01*
X161223321Y-109851528D01*
X161285136Y-109726453D01*
X161285137Y-109726451D01*
X161287430Y-109721811D01*
X161329118Y-109584599D01*
X161350865Y-109513023D01*
X161350865Y-109513021D01*
X161352370Y-109508069D01*
X161381529Y-109286590D01*
X161383156Y-109220000D01*
X161364852Y-108997361D01*
X161310431Y-108780702D01*
X161221354Y-108575840D01*
X161155752Y-108474435D01*
X161102822Y-108392617D01*
X161102820Y-108392614D01*
X161100014Y-108388277D01*
X160949670Y-108223051D01*
X160945619Y-108219852D01*
X160945615Y-108219848D01*
X160778414Y-108087800D01*
X160778410Y-108087798D01*
X160774359Y-108084598D01*
X160578789Y-107976638D01*
X160573920Y-107974914D01*
X160573916Y-107974912D01*
X160373087Y-107903795D01*
X160373083Y-107903794D01*
X160368212Y-107902069D01*
X160363119Y-107901162D01*
X160363116Y-107901161D01*
X160153373Y-107863800D01*
X160153367Y-107863799D01*
X160148284Y-107862894D01*
X160074452Y-107861992D01*
X159930081Y-107860228D01*
X159930079Y-107860228D01*
X159924911Y-107860165D01*
X159704091Y-107893955D01*
X159491756Y-107963357D01*
X159466238Y-107976641D01*
X159300446Y-108062947D01*
X159293607Y-108066507D01*
X159289474Y-108069610D01*
X159289471Y-108069612D01*
X159140409Y-108181531D01*
X159114965Y-108200635D01*
X159111393Y-108204373D01*
X159011715Y-108308679D01*
X158950191Y-108344108D01*
X158879279Y-108340651D01*
X158831527Y-108310722D01*
X153569400Y-103048595D01*
X153535374Y-102986283D01*
X153540439Y-102915468D01*
X153582986Y-102858632D01*
X153649506Y-102833821D01*
X153658495Y-102833500D01*
X168231233Y-102833500D01*
X168242416Y-102834027D01*
X168249909Y-102835702D01*
X168257835Y-102835453D01*
X168257836Y-102835453D01*
X168317986Y-102833562D01*
X168321945Y-102833500D01*
X168349856Y-102833500D01*
X168353791Y-102833003D01*
X168353856Y-102832995D01*
X168365693Y-102832062D01*
X168397951Y-102831048D01*
X168401970Y-102830922D01*
X168409889Y-102830673D01*
X168429343Y-102825021D01*
X168448700Y-102821013D01*
X168460930Y-102819468D01*
X168460931Y-102819468D01*
X168468797Y-102818474D01*
X168476168Y-102815555D01*
X168476170Y-102815555D01*
X168509912Y-102802196D01*
X168521142Y-102798351D01*
X168555983Y-102788229D01*
X168555984Y-102788229D01*
X168563593Y-102786018D01*
X168570412Y-102781985D01*
X168570417Y-102781983D01*
X168581028Y-102775707D01*
X168598776Y-102767012D01*
X168617617Y-102759552D01*
X168653387Y-102733564D01*
X168663307Y-102727048D01*
X168694535Y-102708580D01*
X168694538Y-102708578D01*
X168701362Y-102704542D01*
X168715683Y-102690221D01*
X168730717Y-102677380D01*
X168740694Y-102670131D01*
X168747107Y-102665472D01*
X168775298Y-102631395D01*
X168783288Y-102622616D01*
X178765019Y-92640885D01*
X178827331Y-92606859D01*
X178898146Y-92611924D01*
X178954982Y-92654471D01*
X178979905Y-92722727D01*
X178990110Y-92899715D01*
X178991247Y-92904761D01*
X178991248Y-92904767D01*
X179011011Y-92992460D01*
X179039222Y-93117639D01*
X179076711Y-93209963D01*
X179121010Y-93319059D01*
X179123266Y-93324616D01*
X179174019Y-93407438D01*
X179225657Y-93491703D01*
X179239987Y-93515088D01*
X179386250Y-93683938D01*
X179558126Y-93826632D01*
X179628595Y-93867811D01*
X179631445Y-93869476D01*
X179680169Y-93921114D01*
X179693240Y-93990897D01*
X179666509Y-94056669D01*
X179626055Y-94090027D01*
X179619038Y-94093680D01*
X179613607Y-94096507D01*
X179609474Y-94099610D01*
X179609471Y-94099612D01*
X179439100Y-94227530D01*
X179434965Y-94230635D01*
X179280629Y-94392138D01*
X179277715Y-94396410D01*
X179277714Y-94396411D01*
X179265404Y-94414457D01*
X179154743Y-94576680D01*
X179060688Y-94779305D01*
X179000989Y-94994570D01*
X178977251Y-95216695D01*
X178977548Y-95221848D01*
X178977548Y-95221851D01*
X178983011Y-95316590D01*
X178990110Y-95439715D01*
X178991247Y-95444761D01*
X178991248Y-95444767D01*
X179005449Y-95507778D01*
X179039222Y-95657639D01*
X179079346Y-95756453D01*
X179121010Y-95859059D01*
X179123266Y-95864616D01*
X179173863Y-95947183D01*
X179225657Y-96031703D01*
X179239987Y-96055088D01*
X179386250Y-96223938D01*
X179558126Y-96366632D01*
X179751000Y-96479338D01*
X179959692Y-96559030D01*
X179964760Y-96560061D01*
X179964763Y-96560062D01*
X180059862Y-96579410D01*
X180178597Y-96603567D01*
X180183772Y-96603757D01*
X180183774Y-96603757D01*
X180396673Y-96611564D01*
X180396677Y-96611564D01*
X180401837Y-96611753D01*
X180406957Y-96611097D01*
X180406959Y-96611097D01*
X180618288Y-96584025D01*
X180618289Y-96584025D01*
X180623416Y-96583368D01*
X180628366Y-96581883D01*
X180832429Y-96520661D01*
X180832434Y-96520659D01*
X180837384Y-96519174D01*
X181037994Y-96420896D01*
X181219860Y-96291173D01*
X181378096Y-96133489D01*
X181437594Y-96050689D01*
X181505435Y-95956277D01*
X181508453Y-95952077D01*
X181529089Y-95910324D01*
X181605136Y-95756453D01*
X181605137Y-95756451D01*
X181607430Y-95751811D01*
X181672370Y-95538069D01*
X181701529Y-95316590D01*
X181703156Y-95250000D01*
X181684852Y-95027361D01*
X181630431Y-94810702D01*
X181541354Y-94605840D01*
X181499771Y-94541562D01*
X181422822Y-94422617D01*
X181422820Y-94422614D01*
X181420014Y-94418277D01*
X181269670Y-94253051D01*
X181265619Y-94249852D01*
X181265615Y-94249848D01*
X181098414Y-94117800D01*
X181098410Y-94117798D01*
X181094359Y-94114598D01*
X181053053Y-94091796D01*
X181003084Y-94041364D01*
X180988312Y-93971921D01*
X181013428Y-93905516D01*
X181040780Y-93878909D01*
X181084603Y-93847650D01*
X181219860Y-93751173D01*
X181378096Y-93593489D01*
X181437594Y-93510689D01*
X181505435Y-93416277D01*
X181508453Y-93412077D01*
X181529089Y-93370324D01*
X181605136Y-93216453D01*
X181605137Y-93216451D01*
X181607430Y-93211811D01*
X181672370Y-92998069D01*
X181701529Y-92776590D01*
X181703156Y-92710000D01*
X181684852Y-92487361D01*
X181656821Y-92375765D01*
X181659625Y-92304825D01*
X181689929Y-92255975D01*
X182510254Y-91435649D01*
X182518538Y-91428111D01*
X182525018Y-91423999D01*
X182571659Y-91374331D01*
X182574413Y-91371490D01*
X182594134Y-91351769D01*
X182596612Y-91348574D01*
X182604318Y-91339552D01*
X182629158Y-91313100D01*
X182634586Y-91307320D01*
X182644346Y-91289567D01*
X182655199Y-91273044D01*
X182662753Y-91263305D01*
X182667613Y-91257040D01*
X182685176Y-91216456D01*
X182690383Y-91205826D01*
X182711695Y-91167059D01*
X182713666Y-91159382D01*
X182713668Y-91159377D01*
X182716732Y-91147441D01*
X182723138Y-91128729D01*
X182728034Y-91117416D01*
X182731181Y-91110144D01*
X182736006Y-91079684D01*
X182738097Y-91066480D01*
X182740504Y-91054859D01*
X182749528Y-91019710D01*
X182749528Y-91019709D01*
X182751500Y-91012029D01*
X182751500Y-90991768D01*
X182753051Y-90972057D01*
X182754979Y-90959884D01*
X182756219Y-90952056D01*
X182752059Y-90908045D01*
X182751500Y-90896188D01*
X182751500Y-76786768D01*
X182752027Y-76775585D01*
X182753702Y-76768092D01*
X182751562Y-76700001D01*
X182751500Y-76696044D01*
X182751500Y-76668144D01*
X182750996Y-76664153D01*
X182750063Y-76652311D01*
X182749759Y-76642617D01*
X182748674Y-76608111D01*
X182746462Y-76600497D01*
X182746461Y-76600492D01*
X182743023Y-76588659D01*
X182739012Y-76569295D01*
X182737467Y-76557064D01*
X182736474Y-76549203D01*
X182733557Y-76541836D01*
X182733556Y-76541831D01*
X182720198Y-76508092D01*
X182716354Y-76496865D01*
X182706230Y-76462022D01*
X182704018Y-76454407D01*
X182693707Y-76436972D01*
X182685012Y-76419224D01*
X182677552Y-76400383D01*
X182669714Y-76389594D01*
X182651564Y-76364613D01*
X182645048Y-76354693D01*
X182626580Y-76323465D01*
X182626578Y-76323462D01*
X182622542Y-76316638D01*
X182608221Y-76302317D01*
X182595380Y-76287283D01*
X182588131Y-76277306D01*
X182583472Y-76270893D01*
X182549395Y-76242702D01*
X182540616Y-76234712D01*
X180843652Y-74537747D01*
X180836112Y-74529461D01*
X180832000Y-74522982D01*
X180782348Y-74476356D01*
X180779507Y-74473602D01*
X180759770Y-74453865D01*
X180756573Y-74451385D01*
X180747551Y-74443680D01*
X180721100Y-74418841D01*
X180715321Y-74413414D01*
X180708375Y-74409595D01*
X180708372Y-74409593D01*
X180697566Y-74403652D01*
X180681047Y-74392801D01*
X180680583Y-74392441D01*
X180665041Y-74380386D01*
X180657772Y-74377241D01*
X180657768Y-74377238D01*
X180624463Y-74362826D01*
X180613813Y-74357609D01*
X180575060Y-74336305D01*
X180555437Y-74331267D01*
X180536734Y-74324863D01*
X180525420Y-74319967D01*
X180525419Y-74319967D01*
X180518145Y-74316819D01*
X180510322Y-74315580D01*
X180510312Y-74315577D01*
X180474476Y-74309901D01*
X180462856Y-74307495D01*
X180427711Y-74298472D01*
X180427710Y-74298472D01*
X180420030Y-74296500D01*
X180399776Y-74296500D01*
X180380065Y-74294949D01*
X180367886Y-74293020D01*
X180360057Y-74291780D01*
X180352165Y-74292526D01*
X180316039Y-74295941D01*
X180304181Y-74296500D01*
X151054500Y-74296500D01*
X150986379Y-74276498D01*
X150939886Y-74222842D01*
X150928500Y-74170500D01*
X150928500Y-73156793D01*
X150930732Y-73133184D01*
X150930790Y-73132881D01*
X150930790Y-73132877D01*
X150932275Y-73125094D01*
X150928749Y-73069049D01*
X150928500Y-73061138D01*
X150928500Y-73045144D01*
X150926494Y-73029270D01*
X150925751Y-73021402D01*
X150924718Y-73004970D01*
X150922225Y-72965350D01*
X150919679Y-72957513D01*
X150914506Y-72934369D01*
X150914468Y-72934065D01*
X150914467Y-72934060D01*
X150913474Y-72926203D01*
X150910558Y-72918838D01*
X150910557Y-72918834D01*
X150892801Y-72873989D01*
X150890129Y-72866570D01*
X150872764Y-72813125D01*
X150868514Y-72806428D01*
X150868350Y-72806169D01*
X150857585Y-72785042D01*
X150857471Y-72784754D01*
X150857468Y-72784749D01*
X150854552Y-72777383D01*
X150849896Y-72770975D01*
X150849893Y-72770969D01*
X150821542Y-72731948D01*
X150817092Y-72725401D01*
X150787000Y-72677982D01*
X150780993Y-72672341D01*
X150765312Y-72654554D01*
X150765134Y-72654309D01*
X150765132Y-72654307D01*
X150760472Y-72647893D01*
X150754362Y-72642838D01*
X150717204Y-72612097D01*
X150711270Y-72606866D01*
X150676102Y-72573842D01*
X150676099Y-72573840D01*
X150670321Y-72568414D01*
X150663097Y-72564442D01*
X150643494Y-72551119D01*
X150643254Y-72550920D01*
X150643247Y-72550916D01*
X150637144Y-72545867D01*
X150586324Y-72521953D01*
X150579292Y-72518371D01*
X150543797Y-72498857D01*
X150493740Y-72448513D01*
X150478500Y-72388444D01*
X150478500Y-70821866D01*
X150471745Y-70759684D01*
X150420615Y-70623295D01*
X150347370Y-70525564D01*
X150322522Y-70459059D01*
X150337575Y-70389676D01*
X150347370Y-70374435D01*
X150415229Y-70283891D01*
X150420615Y-70276705D01*
X150471745Y-70140316D01*
X150478500Y-70078134D01*
X150478500Y-68281866D01*
X150471745Y-68219684D01*
X150420615Y-68083295D01*
X150347370Y-67985564D01*
X150322522Y-67919059D01*
X150337575Y-67849676D01*
X150347370Y-67834435D01*
X150415229Y-67743891D01*
X150420615Y-67736705D01*
X150471745Y-67600316D01*
X150478500Y-67538134D01*
X150478500Y-65741866D01*
X150471745Y-65679684D01*
X150420615Y-65543295D01*
X150333261Y-65426739D01*
X150216705Y-65339385D01*
X150080316Y-65288255D01*
X150018134Y-65281500D01*
X147334985Y-65281500D01*
X147333446Y-65281491D01*
X147230081Y-65280228D01*
X147230079Y-65280228D01*
X147224911Y-65280165D01*
X147219797Y-65280948D01*
X147216289Y-65281193D01*
X147207496Y-65281500D01*
X146421866Y-65281500D01*
X146359684Y-65288255D01*
X146223295Y-65339385D01*
X146106739Y-65426739D01*
X146019385Y-65543295D01*
X145968255Y-65679684D01*
X145961500Y-65741866D01*
X145961500Y-66560219D01*
X145960787Y-66573607D01*
X145957251Y-66606695D01*
X145957548Y-66611848D01*
X145957548Y-66611851D01*
X145961291Y-66676763D01*
X145961500Y-66684016D01*
X145961500Y-67538134D01*
X145968255Y-67600316D01*
X146019385Y-67736705D01*
X146024771Y-67743891D01*
X146092630Y-67834435D01*
X146117478Y-67900941D01*
X146102425Y-67970324D01*
X146092632Y-67985562D01*
X146019385Y-68083295D01*
X145968255Y-68219684D01*
X145961500Y-68281866D01*
X145961500Y-69100219D01*
X145960787Y-69113607D01*
X145957251Y-69146695D01*
X145957548Y-69151848D01*
X145957548Y-69151851D01*
X145961291Y-69216763D01*
X145961500Y-69224016D01*
X145961500Y-70078134D01*
X145968255Y-70140316D01*
X146019385Y-70276705D01*
X146024771Y-70283891D01*
X146092630Y-70374435D01*
X146117478Y-70440941D01*
X146102425Y-70510324D01*
X146092632Y-70525562D01*
X146019385Y-70623295D01*
X145968255Y-70759684D01*
X145961500Y-70821866D01*
X145961500Y-72386977D01*
X145941498Y-72455098D01*
X145887842Y-72501591D01*
X145885604Y-72502462D01*
X145880666Y-72504786D01*
X145873125Y-72507236D01*
X145866429Y-72511486D01*
X145866428Y-72511486D01*
X145866169Y-72511650D01*
X145845042Y-72522415D01*
X145844754Y-72522529D01*
X145844749Y-72522532D01*
X145837383Y-72525448D01*
X145830975Y-72530104D01*
X145830969Y-72530107D01*
X145791948Y-72558458D01*
X145785411Y-72562901D01*
X145737982Y-72593000D01*
X145732556Y-72598778D01*
X145732555Y-72598779D01*
X145732341Y-72599007D01*
X145714554Y-72614688D01*
X145714309Y-72614866D01*
X145714307Y-72614868D01*
X145707893Y-72619528D01*
X145702839Y-72625637D01*
X145702838Y-72625638D01*
X145672097Y-72662796D01*
X145666866Y-72668730D01*
X145633842Y-72703898D01*
X145633840Y-72703901D01*
X145628414Y-72709679D01*
X145624445Y-72716899D01*
X145611119Y-72736506D01*
X145610920Y-72736746D01*
X145610916Y-72736753D01*
X145605867Y-72742856D01*
X145602493Y-72750027D01*
X145581953Y-72793676D01*
X145578371Y-72800708D01*
X145551305Y-72849940D01*
X145549335Y-72857615D01*
X145549332Y-72857621D01*
X145549256Y-72857919D01*
X145541224Y-72880228D01*
X145541094Y-72880503D01*
X145541091Y-72880511D01*
X145537717Y-72887682D01*
X145531775Y-72918834D01*
X145527195Y-72942843D01*
X145525471Y-72950558D01*
X145511500Y-73004970D01*
X145511500Y-73013207D01*
X145509268Y-73036816D01*
X145507725Y-73044906D01*
X145509244Y-73069049D01*
X145511251Y-73100951D01*
X145511500Y-73108862D01*
X145511500Y-75546233D01*
X145510973Y-75557416D01*
X145509298Y-75564909D01*
X145509547Y-75572835D01*
X145509547Y-75572836D01*
X145511438Y-75632986D01*
X145511500Y-75636945D01*
X145511500Y-75664856D01*
X145511997Y-75668790D01*
X145511997Y-75668791D01*
X145512005Y-75668856D01*
X145512938Y-75680693D01*
X145514327Y-75724889D01*
X145519978Y-75744339D01*
X145523987Y-75763700D01*
X145526526Y-75783797D01*
X145529445Y-75791168D01*
X145529445Y-75791170D01*
X145542804Y-75824912D01*
X145546649Y-75836142D01*
X145558982Y-75878593D01*
X145563015Y-75885412D01*
X145563017Y-75885417D01*
X145569293Y-75896028D01*
X145577988Y-75913776D01*
X145585448Y-75932617D01*
X145590110Y-75939033D01*
X145590110Y-75939034D01*
X145611436Y-75968387D01*
X145617952Y-75978307D01*
X145640458Y-76016362D01*
X145654779Y-76030683D01*
X145667619Y-76045716D01*
X145679528Y-76062107D01*
X145685634Y-76067158D01*
X145713605Y-76090298D01*
X145722384Y-76098288D01*
X145924595Y-76300499D01*
X145958621Y-76362811D01*
X145961500Y-76389594D01*
X145961500Y-76720219D01*
X145960787Y-76733607D01*
X145957251Y-76766695D01*
X145957548Y-76771848D01*
X145957548Y-76771851D01*
X145961291Y-76836763D01*
X145961500Y-76844016D01*
X145961500Y-77698134D01*
X145968255Y-77760316D01*
X146019385Y-77896705D01*
X146071961Y-77966857D01*
X146092630Y-77994435D01*
X146117478Y-78060941D01*
X146102425Y-78130324D01*
X146092632Y-78145562D01*
X146019385Y-78243295D01*
X145968255Y-78379684D01*
X145961500Y-78441866D01*
X145961500Y-79260219D01*
X145960787Y-79273607D01*
X145957251Y-79306695D01*
X145957548Y-79311848D01*
X145957548Y-79311851D01*
X145961291Y-79376763D01*
X145961500Y-79384016D01*
X145961500Y-80238134D01*
X145968255Y-80300316D01*
X146019385Y-80436705D01*
X146071961Y-80506857D01*
X146092630Y-80534435D01*
X146117478Y-80600941D01*
X146102425Y-80670324D01*
X146092632Y-80685562D01*
X146019385Y-80783295D01*
X145968255Y-80919684D01*
X145961500Y-80981866D01*
X145961500Y-81800219D01*
X145960787Y-81813607D01*
X145957251Y-81846695D01*
X145957548Y-81851848D01*
X145957548Y-81851851D01*
X145961291Y-81916763D01*
X145961500Y-81924016D01*
X145961500Y-82778134D01*
X145968255Y-82840316D01*
X146019385Y-82976705D01*
X146024771Y-82983891D01*
X146092630Y-83074435D01*
X146117478Y-83140941D01*
X146102425Y-83210324D01*
X146092632Y-83225562D01*
X146019385Y-83323295D01*
X145968255Y-83459684D01*
X145961500Y-83521866D01*
X145961500Y-85318134D01*
X145968255Y-85380316D01*
X146019385Y-85516705D01*
X146024771Y-85523891D01*
X146092630Y-85614435D01*
X146117478Y-85680941D01*
X146102425Y-85750324D01*
X146092632Y-85765562D01*
X146019385Y-85863295D01*
X145968255Y-85999684D01*
X145961500Y-86061866D01*
X145961500Y-86880219D01*
X145960787Y-86893607D01*
X145957251Y-86926695D01*
X145957548Y-86931848D01*
X145957548Y-86931851D01*
X145961291Y-86996763D01*
X145961500Y-87004016D01*
X145961500Y-87858134D01*
X145968255Y-87920316D01*
X146019385Y-88056705D01*
X146024771Y-88063891D01*
X146092630Y-88154435D01*
X146117478Y-88220941D01*
X146102425Y-88290324D01*
X146092632Y-88305562D01*
X146019385Y-88403295D01*
X145968255Y-88539684D01*
X145961500Y-88601866D01*
X145961500Y-89420219D01*
X145960787Y-89433607D01*
X145957251Y-89466695D01*
X145957548Y-89471848D01*
X145957548Y-89471851D01*
X145961291Y-89536763D01*
X145961500Y-89544016D01*
X145961500Y-90398134D01*
X145968255Y-90460316D01*
X146019385Y-90596705D01*
X146092630Y-90694435D01*
X146117478Y-90760941D01*
X146102425Y-90830324D01*
X146092632Y-90845562D01*
X146019385Y-90943295D01*
X145968255Y-91079684D01*
X145961500Y-91141866D01*
X145961500Y-91960219D01*
X145960787Y-91973607D01*
X145957251Y-92006695D01*
X145957548Y-92011848D01*
X145957548Y-92011851D01*
X145961291Y-92076763D01*
X145961500Y-92084016D01*
X145961500Y-92938134D01*
X145968255Y-93000316D01*
X146019385Y-93136705D01*
X146092630Y-93234435D01*
X146117478Y-93300941D01*
X146102425Y-93370324D01*
X146092632Y-93385562D01*
X146019385Y-93483295D01*
X145968255Y-93619684D01*
X145961500Y-93681866D01*
X145961500Y-94500219D01*
X145960787Y-94513607D01*
X145957251Y-94546695D01*
X145957548Y-94551848D01*
X145957548Y-94551851D01*
X145961291Y-94616763D01*
X145961500Y-94624016D01*
X145961500Y-95478134D01*
X145968255Y-95540316D01*
X146019385Y-95676705D01*
X146092630Y-95774435D01*
X146117478Y-95840941D01*
X146102425Y-95910324D01*
X146092632Y-95925562D01*
X146019385Y-96023295D01*
X145968255Y-96159684D01*
X145961500Y-96221866D01*
X145961500Y-98018134D01*
X145968255Y-98080316D01*
X146019385Y-98216705D01*
X146024771Y-98223891D01*
X146092630Y-98314435D01*
X146117478Y-98380941D01*
X146102425Y-98450324D01*
X146092632Y-98465562D01*
X146019385Y-98563295D01*
X145968255Y-98699684D01*
X145961500Y-98761866D01*
X145961500Y-99580219D01*
X145960787Y-99593607D01*
X145957251Y-99626695D01*
X145957548Y-99631848D01*
X145957548Y-99631851D01*
X145961291Y-99696763D01*
X145961500Y-99704016D01*
X145961500Y-100558134D01*
X145968255Y-100620316D01*
X146019385Y-100756705D01*
X146024771Y-100763891D01*
X146092630Y-100854435D01*
X146117478Y-100920941D01*
X146102425Y-100990324D01*
X146092632Y-101005562D01*
X146019385Y-101103295D01*
X145968255Y-101239684D01*
X145961500Y-101301866D01*
X145961500Y-102120219D01*
X145960787Y-102133607D01*
X145957251Y-102166695D01*
X145957548Y-102171848D01*
X145957548Y-102171851D01*
X145961291Y-102236763D01*
X145961500Y-102244016D01*
X145961500Y-102615700D01*
X145941498Y-102683821D01*
X145887842Y-102730314D01*
X145835500Y-102741700D01*
X144904894Y-102741700D01*
X144836773Y-102721698D01*
X144815799Y-102704795D01*
X138021329Y-95910324D01*
X131218752Y-89107747D01*
X131211212Y-89099461D01*
X131207100Y-89092982D01*
X131157448Y-89046356D01*
X131154607Y-89043602D01*
X131134870Y-89023865D01*
X131131673Y-89021385D01*
X131122651Y-89013680D01*
X131096200Y-88988841D01*
X131090421Y-88983414D01*
X131083475Y-88979595D01*
X131083472Y-88979593D01*
X131072666Y-88973652D01*
X131056147Y-88962801D01*
X131054294Y-88961364D01*
X131040141Y-88950386D01*
X131032872Y-88947241D01*
X131032868Y-88947238D01*
X130999563Y-88932826D01*
X130988913Y-88927609D01*
X130963799Y-88913803D01*
X130913741Y-88863460D01*
X130898500Y-88803389D01*
X130898500Y-88601866D01*
X130891745Y-88539684D01*
X130840615Y-88403295D01*
X130767370Y-88305564D01*
X130742522Y-88239059D01*
X130757575Y-88169676D01*
X130767370Y-88154435D01*
X130835229Y-88063891D01*
X130840615Y-88056705D01*
X130891745Y-87920316D01*
X130898500Y-87858134D01*
X130898500Y-87057856D01*
X130899578Y-87041409D01*
X130901092Y-87029908D01*
X130901529Y-87026590D01*
X130903156Y-86960000D01*
X130898924Y-86908524D01*
X130898500Y-86898200D01*
X130898500Y-86061866D01*
X130891745Y-85999684D01*
X130840615Y-85863295D01*
X130767370Y-85765564D01*
X130742522Y-85699059D01*
X130757575Y-85629676D01*
X130767370Y-85614435D01*
X130835229Y-85523891D01*
X130840615Y-85516705D01*
X130891745Y-85380316D01*
X130898500Y-85318134D01*
X130898500Y-83521866D01*
X130891745Y-83459684D01*
X130840615Y-83323295D01*
X130767370Y-83225564D01*
X130742522Y-83159059D01*
X130757575Y-83089676D01*
X130767370Y-83074435D01*
X130835229Y-82983891D01*
X130840615Y-82976705D01*
X130891745Y-82840316D01*
X130898500Y-82778134D01*
X130898500Y-81977856D01*
X130899578Y-81961409D01*
X130901092Y-81949908D01*
X130901529Y-81946590D01*
X130903156Y-81880000D01*
X130898924Y-81828524D01*
X130898500Y-81818200D01*
X130898500Y-80981866D01*
X130891745Y-80919684D01*
X130840615Y-80783295D01*
X130767370Y-80685564D01*
X130742522Y-80619059D01*
X130757575Y-80549676D01*
X130767370Y-80534435D01*
X130788039Y-80506857D01*
X130840615Y-80436705D01*
X130891745Y-80300316D01*
X130898500Y-80238134D01*
X130898500Y-79437856D01*
X130899578Y-79421409D01*
X130901092Y-79409908D01*
X130901529Y-79406590D01*
X130903156Y-79340000D01*
X130898924Y-79288524D01*
X130898500Y-79278200D01*
X130898500Y-78441866D01*
X130891745Y-78379684D01*
X130840615Y-78243295D01*
X130767370Y-78145564D01*
X130742522Y-78079059D01*
X130757575Y-78009676D01*
X130767370Y-77994435D01*
X130788039Y-77966857D01*
X130840615Y-77896705D01*
X130891745Y-77760316D01*
X130898500Y-77698134D01*
X130898500Y-76897856D01*
X130899578Y-76881409D01*
X130901092Y-76869908D01*
X130901529Y-76866590D01*
X130903156Y-76800000D01*
X130898924Y-76748524D01*
X130898500Y-76738200D01*
X130898500Y-75901866D01*
X130891745Y-75839684D01*
X130840615Y-75703295D01*
X130767370Y-75605564D01*
X130742522Y-75539059D01*
X130757575Y-75469676D01*
X130767370Y-75454435D01*
X130835229Y-75363891D01*
X130840615Y-75356705D01*
X130891745Y-75220316D01*
X130898500Y-75158134D01*
X130898500Y-74357856D01*
X130899578Y-74341409D01*
X130901092Y-74329908D01*
X130901529Y-74326590D01*
X130901937Y-74309901D01*
X130903074Y-74263365D01*
X130903074Y-74263361D01*
X130903156Y-74260000D01*
X130898924Y-74208524D01*
X130898500Y-74198200D01*
X130898500Y-73361866D01*
X130891745Y-73299684D01*
X130840615Y-73163295D01*
X130790422Y-73096323D01*
X130767058Y-73065148D01*
X130742210Y-72998642D01*
X130757263Y-72929259D01*
X130767058Y-72914018D01*
X130834786Y-72823649D01*
X130843324Y-72808054D01*
X130888478Y-72687606D01*
X130892105Y-72672351D01*
X130897631Y-72621486D01*
X130898000Y-72614672D01*
X130898000Y-71992115D01*
X130893525Y-71976876D01*
X130892135Y-71975671D01*
X130884452Y-71974000D01*
X126400116Y-71974000D01*
X126384877Y-71978475D01*
X126383672Y-71979865D01*
X126382001Y-71987548D01*
X126382001Y-72614669D01*
X126382371Y-72621490D01*
X126387895Y-72672352D01*
X126391521Y-72687604D01*
X126436676Y-72808054D01*
X126445214Y-72823649D01*
X126512942Y-72914018D01*
X126537790Y-72980525D01*
X126522737Y-73049907D01*
X126512942Y-73065148D01*
X126489578Y-73096323D01*
X126439385Y-73163295D01*
X126388255Y-73299684D01*
X126381500Y-73361866D01*
X126381500Y-75158134D01*
X126388255Y-75220316D01*
X126439385Y-75356705D01*
X126444771Y-75363891D01*
X126512630Y-75454435D01*
X126537478Y-75520941D01*
X126522425Y-75590324D01*
X126512632Y-75605562D01*
X126439385Y-75703295D01*
X126388255Y-75839684D01*
X126381500Y-75901866D01*
X126381500Y-77698134D01*
X126388255Y-77760316D01*
X126439385Y-77896705D01*
X126491961Y-77966857D01*
X126512630Y-77994435D01*
X126537478Y-78060941D01*
X126522425Y-78130324D01*
X126512632Y-78145562D01*
X126439385Y-78243295D01*
X126388255Y-78379684D01*
X126381500Y-78441866D01*
X126381500Y-80238134D01*
X126388255Y-80300316D01*
X126439385Y-80436705D01*
X126491961Y-80506857D01*
X126512630Y-80534435D01*
X126537478Y-80600941D01*
X126522425Y-80670324D01*
X126512632Y-80685562D01*
X126439385Y-80783295D01*
X126388255Y-80919684D01*
X126381500Y-80981866D01*
X126381500Y-82778134D01*
X126388255Y-82840316D01*
X126439385Y-82976705D01*
X126444771Y-82983891D01*
X126512630Y-83074435D01*
X126537478Y-83140941D01*
X126522425Y-83210324D01*
X126512632Y-83225562D01*
X126439385Y-83323295D01*
X126388255Y-83459684D01*
X126381500Y-83521866D01*
X126381500Y-85318134D01*
X126388255Y-85380316D01*
X126439385Y-85516705D01*
X126444771Y-85523891D01*
X126512630Y-85614435D01*
X126537478Y-85680941D01*
X126522425Y-85750324D01*
X126512632Y-85765562D01*
X126439385Y-85863295D01*
X126388255Y-85999684D01*
X126381500Y-86061866D01*
X126381500Y-87858134D01*
X126388255Y-87920316D01*
X126439385Y-88056705D01*
X126444771Y-88063891D01*
X126512630Y-88154435D01*
X126537478Y-88220941D01*
X126522425Y-88290324D01*
X126512632Y-88305562D01*
X126439385Y-88403295D01*
X126388255Y-88539684D01*
X126381500Y-88601866D01*
X126381500Y-90398134D01*
X126388255Y-90460316D01*
X126439385Y-90596705D01*
X126512630Y-90694435D01*
X126537478Y-90760941D01*
X126522425Y-90830324D01*
X126512632Y-90845562D01*
X126439385Y-90943295D01*
X126388255Y-91079684D01*
X126381500Y-91141866D01*
X126381500Y-92938134D01*
X126388255Y-93000316D01*
X126439385Y-93136705D01*
X126512630Y-93234435D01*
X126537478Y-93300941D01*
X126522425Y-93370324D01*
X126512632Y-93385562D01*
X126439385Y-93483295D01*
X126388255Y-93619684D01*
X126381500Y-93681866D01*
X126381500Y-95478134D01*
X126388255Y-95540316D01*
X126439385Y-95676705D01*
X126512630Y-95774435D01*
X126537478Y-95840941D01*
X126522425Y-95910324D01*
X126512632Y-95925562D01*
X126439385Y-96023295D01*
X126388255Y-96159684D01*
X126381500Y-96221866D01*
X126381500Y-98018134D01*
X126388255Y-98080316D01*
X126439385Y-98216705D01*
X126444771Y-98223891D01*
X126512630Y-98314435D01*
X126537478Y-98380941D01*
X126522425Y-98450324D01*
X126512632Y-98465562D01*
X126439385Y-98563295D01*
X126388255Y-98699684D01*
X126381500Y-98761866D01*
X126381500Y-100558134D01*
X126388255Y-100620316D01*
X126439385Y-100756705D01*
X126444771Y-100763891D01*
X126512630Y-100854435D01*
X126537478Y-100920941D01*
X126522425Y-100990324D01*
X126512632Y-101005562D01*
X126439385Y-101103295D01*
X126388255Y-101239684D01*
X126381500Y-101301866D01*
X126381500Y-103098134D01*
X126388255Y-103160316D01*
X126439385Y-103296705D01*
X126444771Y-103303891D01*
X126512630Y-103394435D01*
X126537478Y-103460941D01*
X126522425Y-103530324D01*
X126512632Y-103545562D01*
X126439385Y-103643295D01*
X126388255Y-103779684D01*
X126381500Y-103841866D01*
X126381500Y-105638134D01*
X126388255Y-105700316D01*
X126439385Y-105836705D01*
X126444771Y-105843891D01*
X126512630Y-105934435D01*
X126537478Y-106000941D01*
X126522425Y-106070324D01*
X126512632Y-106085562D01*
X126439385Y-106183295D01*
X126388255Y-106319684D01*
X126381500Y-106381866D01*
X126381500Y-108178134D01*
X126388255Y-108240316D01*
X126439385Y-108376705D01*
X126512630Y-108474435D01*
X126537478Y-108540941D01*
X126522425Y-108610324D01*
X126512632Y-108625562D01*
X126439385Y-108723295D01*
X126388255Y-108859684D01*
X126381500Y-108921866D01*
X126381500Y-110718134D01*
X126388255Y-110780316D01*
X126439385Y-110916705D01*
X126512630Y-111014435D01*
X126537478Y-111080941D01*
X126522425Y-111150324D01*
X126512632Y-111165562D01*
X126439385Y-111263295D01*
X126388255Y-111399684D01*
X126381500Y-111461866D01*
X126381500Y-113258134D01*
X126388255Y-113320316D01*
X126439385Y-113456705D01*
X126463080Y-113488321D01*
X126512630Y-113554435D01*
X126537478Y-113620941D01*
X126522425Y-113690324D01*
X126512632Y-113705562D01*
X126439385Y-113803295D01*
X126388255Y-113939684D01*
X126381500Y-114001866D01*
X126381500Y-115798134D01*
X118618500Y-115798134D01*
X118618500Y-70078134D01*
X126381500Y-70078134D01*
X126388255Y-70140316D01*
X126439385Y-70276705D01*
X126444771Y-70283891D01*
X126512942Y-70374852D01*
X126537790Y-70441358D01*
X126522737Y-70510741D01*
X126512942Y-70525982D01*
X126445214Y-70616351D01*
X126436676Y-70631946D01*
X126391522Y-70752394D01*
X126387895Y-70767649D01*
X126382369Y-70818514D01*
X126382000Y-70825328D01*
X126382000Y-71447885D01*
X126386475Y-71463124D01*
X126387865Y-71464329D01*
X126395548Y-71466000D01*
X130879884Y-71466000D01*
X130895123Y-71461525D01*
X130896328Y-71460135D01*
X130897999Y-71452452D01*
X130897999Y-70825331D01*
X130897629Y-70818510D01*
X130892105Y-70767648D01*
X130888479Y-70752396D01*
X130843324Y-70631946D01*
X130834786Y-70616351D01*
X130767058Y-70525982D01*
X130742210Y-70459475D01*
X130757263Y-70390093D01*
X130767058Y-70374852D01*
X130835229Y-70283891D01*
X130840615Y-70276705D01*
X130891745Y-70140316D01*
X130898500Y-70078134D01*
X130898500Y-69277856D01*
X130899578Y-69261409D01*
X130901092Y-69249908D01*
X130901529Y-69246590D01*
X130903156Y-69180000D01*
X130898924Y-69128524D01*
X130898500Y-69118200D01*
X130898500Y-68281866D01*
X130891745Y-68219684D01*
X130840615Y-68083295D01*
X130767370Y-67985564D01*
X130742522Y-67919059D01*
X130757575Y-67849676D01*
X130767370Y-67834435D01*
X130835229Y-67743891D01*
X130840615Y-67736705D01*
X130891745Y-67600316D01*
X130898500Y-67538134D01*
X130898500Y-66737856D01*
X130899578Y-66721409D01*
X130901092Y-66709908D01*
X130901529Y-66706590D01*
X130902258Y-66676763D01*
X130903074Y-66643365D01*
X130903074Y-66643361D01*
X130903156Y-66640000D01*
X130898924Y-66588524D01*
X130898500Y-66578200D01*
X130898500Y-65741866D01*
X130891745Y-65679684D01*
X130840615Y-65543295D01*
X130753261Y-65426739D01*
X130636705Y-65339385D01*
X130500316Y-65288255D01*
X130438134Y-65281500D01*
X129554985Y-65281500D01*
X129553446Y-65281491D01*
X129450081Y-65280228D01*
X129450079Y-65280228D01*
X129444911Y-65280165D01*
X129439797Y-65280948D01*
X129436289Y-65281193D01*
X129427496Y-65281500D01*
X126841866Y-65281500D01*
X126779684Y-65288255D01*
X126643295Y-65339385D01*
X126526739Y-65426739D01*
X126439385Y-65543295D01*
X126388255Y-65679684D01*
X126381500Y-65741866D01*
X126381500Y-67538134D01*
X126388255Y-67600316D01*
X126439385Y-67736705D01*
X126444771Y-67743891D01*
X126512630Y-67834435D01*
X126537478Y-67900941D01*
X126522425Y-67970324D01*
X126512632Y-67985562D01*
X126439385Y-68083295D01*
X126388255Y-68219684D01*
X126381500Y-68281866D01*
X126381500Y-70078134D01*
X118618500Y-70078134D01*
X118618500Y-64823250D01*
X118620246Y-64802345D01*
X118622770Y-64787344D01*
X118622770Y-64787341D01*
X118623576Y-64782552D01*
X118623729Y-64770000D01*
X118623039Y-64765180D01*
X118621644Y-64755437D01*
X118621304Y-64747869D01*
X119806689Y-64747869D01*
X119823238Y-65034883D01*
X119824063Y-65039088D01*
X119824064Y-65039096D01*
X119856010Y-65201921D01*
X119878586Y-65316995D01*
X119879973Y-65321045D01*
X119879974Y-65321050D01*
X119953606Y-65536109D01*
X119971710Y-65588986D01*
X120036298Y-65717404D01*
X120061310Y-65767135D01*
X120100885Y-65845822D01*
X120263721Y-66082750D01*
X120457206Y-66295388D01*
X120460501Y-66298143D01*
X120460502Y-66298144D01*
X120511258Y-66340582D01*
X120677759Y-66479798D01*
X120921298Y-66632571D01*
X121183318Y-66750877D01*
X121187437Y-66752097D01*
X121454857Y-66831311D01*
X121454862Y-66831312D01*
X121458970Y-66832529D01*
X121463204Y-66833177D01*
X121463209Y-66833178D01*
X121711811Y-66871219D01*
X121743153Y-66876015D01*
X121889485Y-66878314D01*
X122026317Y-66880464D01*
X122026323Y-66880464D01*
X122030608Y-66880531D01*
X122034860Y-66880016D01*
X122034868Y-66880016D01*
X122311756Y-66846508D01*
X122311761Y-66846507D01*
X122316017Y-66845992D01*
X122594097Y-66773039D01*
X122859704Y-66663021D01*
X123024134Y-66566936D01*
X123104219Y-66520138D01*
X123104220Y-66520137D01*
X123107922Y-66517974D01*
X123334159Y-66340582D01*
X123375285Y-66298144D01*
X123531244Y-66137206D01*
X123534227Y-66134128D01*
X123536760Y-66130680D01*
X123536764Y-66130675D01*
X123701887Y-65905886D01*
X123704425Y-65902431D01*
X123777885Y-65767135D01*
X123839554Y-65653555D01*
X123839555Y-65653553D01*
X123841604Y-65649779D01*
X123925884Y-65426739D01*
X123941707Y-65384866D01*
X123941708Y-65384862D01*
X123943225Y-65380848D01*
X124007407Y-65100613D01*
X124021675Y-64940748D01*
X124032743Y-64816726D01*
X124032743Y-64816724D01*
X124032963Y-64814260D01*
X124033427Y-64770000D01*
X124031918Y-64747869D01*
X185846689Y-64747869D01*
X185863238Y-65034883D01*
X185864063Y-65039088D01*
X185864064Y-65039096D01*
X185896010Y-65201921D01*
X185918586Y-65316995D01*
X185919973Y-65321045D01*
X185919974Y-65321050D01*
X185993606Y-65536109D01*
X186011710Y-65588986D01*
X186076297Y-65717404D01*
X186101310Y-65767135D01*
X186140885Y-65845822D01*
X186303721Y-66082750D01*
X186497206Y-66295388D01*
X186500501Y-66298143D01*
X186500502Y-66298144D01*
X186551258Y-66340582D01*
X186717759Y-66479798D01*
X186961298Y-66632571D01*
X187223318Y-66750877D01*
X187227437Y-66752097D01*
X187494857Y-66831311D01*
X187494862Y-66831312D01*
X187498970Y-66832529D01*
X187503204Y-66833177D01*
X187503209Y-66833178D01*
X187751811Y-66871219D01*
X187783153Y-66876015D01*
X187929485Y-66878314D01*
X188066317Y-66880464D01*
X188066323Y-66880464D01*
X188070608Y-66880531D01*
X188074860Y-66880016D01*
X188074868Y-66880016D01*
X188351756Y-66846508D01*
X188351761Y-66846507D01*
X188356017Y-66845992D01*
X188634097Y-66773039D01*
X188899704Y-66663021D01*
X189064134Y-66566936D01*
X189144219Y-66520138D01*
X189144220Y-66520137D01*
X189147922Y-66517974D01*
X189374159Y-66340582D01*
X189415285Y-66298144D01*
X189571244Y-66137206D01*
X189574227Y-66134128D01*
X189576760Y-66130680D01*
X189576764Y-66130675D01*
X189741887Y-65905886D01*
X189744425Y-65902431D01*
X189817885Y-65767135D01*
X189879554Y-65653555D01*
X189879555Y-65653553D01*
X189881604Y-65649779D01*
X189965884Y-65426739D01*
X189981707Y-65384866D01*
X189981708Y-65384862D01*
X189983225Y-65380848D01*
X190047407Y-65100613D01*
X190061675Y-64940748D01*
X190072743Y-64816726D01*
X190072743Y-64816724D01*
X190072963Y-64814260D01*
X190073427Y-64770000D01*
X190053873Y-64483175D01*
X190049336Y-64461264D01*
X189996443Y-64205855D01*
X189995574Y-64201658D01*
X189899607Y-63930657D01*
X189767750Y-63675188D01*
X189754488Y-63656317D01*
X189604904Y-63443482D01*
X189602441Y-63439977D01*
X189406740Y-63229378D01*
X189184268Y-63047287D01*
X188939142Y-62897073D01*
X188921048Y-62889130D01*
X188679830Y-62783243D01*
X188675898Y-62781517D01*
X188649963Y-62774129D01*
X188403534Y-62703932D01*
X188403535Y-62703932D01*
X188399406Y-62702756D01*
X188186704Y-62672485D01*
X188119036Y-62662854D01*
X188119034Y-62662854D01*
X188114784Y-62662249D01*
X188110495Y-62662227D01*
X188110488Y-62662226D01*
X187831583Y-62660765D01*
X187831576Y-62660765D01*
X187827297Y-62660743D01*
X187823053Y-62661302D01*
X187823049Y-62661302D01*
X187697660Y-62677810D01*
X187542266Y-62698268D01*
X187538126Y-62699401D01*
X187538124Y-62699401D01*
X187461311Y-62720415D01*
X187264964Y-62774129D01*
X187261016Y-62775813D01*
X187004476Y-62885237D01*
X187004472Y-62885239D01*
X187000524Y-62886923D01*
X186875960Y-62961473D01*
X186757521Y-63032357D01*
X186757517Y-63032360D01*
X186753839Y-63034561D01*
X186529472Y-63214313D01*
X186331577Y-63422851D01*
X186163814Y-63656317D01*
X186029288Y-63910392D01*
X185930489Y-64180373D01*
X185869245Y-64461264D01*
X185868909Y-64465534D01*
X185847196Y-64741428D01*
X185847195Y-64741428D01*
X185847196Y-64741430D01*
X185846689Y-64747869D01*
X124031918Y-64747869D01*
X124013873Y-64483175D01*
X124009336Y-64461264D01*
X123956443Y-64205855D01*
X123955574Y-64201658D01*
X123859607Y-63930657D01*
X123727750Y-63675188D01*
X123714488Y-63656317D01*
X123564904Y-63443482D01*
X123562441Y-63439977D01*
X123366740Y-63229378D01*
X123144268Y-63047287D01*
X122899142Y-62897073D01*
X122881048Y-62889130D01*
X122639830Y-62783243D01*
X122635898Y-62781517D01*
X122609963Y-62774129D01*
X122363534Y-62703932D01*
X122363535Y-62703932D01*
X122359406Y-62702756D01*
X122146704Y-62672485D01*
X122079036Y-62662854D01*
X122079034Y-62662854D01*
X122074784Y-62662249D01*
X122070495Y-62662227D01*
X122070488Y-62662226D01*
X121791583Y-62660765D01*
X121791576Y-62660765D01*
X121787297Y-62660743D01*
X121783053Y-62661302D01*
X121783049Y-62661302D01*
X121657660Y-62677810D01*
X121502266Y-62698268D01*
X121498126Y-62699401D01*
X121498124Y-62699401D01*
X121421311Y-62720415D01*
X121224964Y-62774129D01*
X121221016Y-62775813D01*
X120964476Y-62885237D01*
X120964472Y-62885239D01*
X120960524Y-62886923D01*
X120835960Y-62961473D01*
X120717521Y-63032357D01*
X120717517Y-63032360D01*
X120713839Y-63034561D01*
X120489472Y-63214313D01*
X120291577Y-63422851D01*
X120123814Y-63656317D01*
X119989288Y-63910392D01*
X119890489Y-64180373D01*
X119829245Y-64461264D01*
X119828909Y-64465534D01*
X119807196Y-64741428D01*
X119807195Y-64741428D01*
X119807196Y-64741430D01*
X119806689Y-64747869D01*
X118621304Y-64747869D01*
X118620545Y-64730983D01*
X118636240Y-64431500D01*
X118637618Y-64418383D01*
X118689613Y-64090102D01*
X118692355Y-64077202D01*
X118778379Y-63756154D01*
X118782455Y-63743610D01*
X118805154Y-63684479D01*
X118901562Y-63433328D01*
X118906926Y-63421280D01*
X119057820Y-63125133D01*
X119064414Y-63113712D01*
X119245437Y-62834960D01*
X119253190Y-62824290D01*
X119462352Y-62565996D01*
X119471177Y-62556195D01*
X119706195Y-62321177D01*
X119715996Y-62312352D01*
X119974290Y-62103190D01*
X119984960Y-62095437D01*
X120263712Y-61914414D01*
X120275133Y-61907820D01*
X120571280Y-61756926D01*
X120583328Y-61751562D01*
X120622532Y-61736513D01*
X120893618Y-61632453D01*
X120906154Y-61628379D01*
X121227202Y-61542355D01*
X121240102Y-61539613D01*
X121568383Y-61487618D01*
X121581499Y-61486240D01*
X121615152Y-61484476D01*
X121877298Y-61470738D01*
X121903273Y-61472065D01*
X121904843Y-61472309D01*
X121904849Y-61472309D01*
X121913724Y-61473691D01*
X121922626Y-61472527D01*
X121922628Y-61472527D01*
X121937677Y-61470559D01*
X121945286Y-61469564D01*
X121961621Y-61468500D01*
X187910633Y-61468500D01*
X187930018Y-61470000D01*
G37*
G04 #@! TD.AperFunction*
G04 #@! TA.AperFunction,Conductor*
G36*
X178898146Y-79911925D02*
G01*
X178954982Y-79954472D01*
X178979905Y-80022728D01*
X178990110Y-80199715D01*
X178991247Y-80204761D01*
X178991248Y-80204767D01*
X179011011Y-80292460D01*
X179039222Y-80417639D01*
X179077461Y-80511811D01*
X179121010Y-80619059D01*
X179123266Y-80624616D01*
X179174019Y-80707438D01*
X179225657Y-80791703D01*
X179239987Y-80815088D01*
X179386250Y-80983938D01*
X179558126Y-81126632D01*
X179628595Y-81167811D01*
X179631445Y-81169476D01*
X179680169Y-81221114D01*
X179693240Y-81290897D01*
X179666509Y-81356669D01*
X179626055Y-81390027D01*
X179613607Y-81396507D01*
X179609474Y-81399610D01*
X179609471Y-81399612D01*
X179585247Y-81417800D01*
X179434965Y-81530635D01*
X179280629Y-81692138D01*
X179154743Y-81876680D01*
X179060688Y-82079305D01*
X179000989Y-82294570D01*
X178977251Y-82516695D01*
X178977548Y-82521848D01*
X178977548Y-82521851D01*
X178983011Y-82616590D01*
X178990110Y-82739715D01*
X178991247Y-82744761D01*
X178991248Y-82744767D01*
X179011011Y-82832460D01*
X179039222Y-82957639D01*
X179077461Y-83051811D01*
X179121010Y-83159059D01*
X179123266Y-83164616D01*
X179174019Y-83247438D01*
X179225657Y-83331703D01*
X179239987Y-83355088D01*
X179386250Y-83523938D01*
X179558126Y-83666632D01*
X179628595Y-83707811D01*
X179631445Y-83709476D01*
X179680169Y-83761114D01*
X179693240Y-83830897D01*
X179666509Y-83896669D01*
X179626055Y-83930027D01*
X179613607Y-83936507D01*
X179609474Y-83939610D01*
X179609471Y-83939612D01*
X179585247Y-83957800D01*
X179434965Y-84070635D01*
X179280629Y-84232138D01*
X179154743Y-84416680D01*
X179060688Y-84619305D01*
X179000989Y-84834570D01*
X178977251Y-85056695D01*
X178977548Y-85061848D01*
X178977548Y-85061851D01*
X178983011Y-85156590D01*
X178990110Y-85279715D01*
X178991247Y-85284761D01*
X178991248Y-85284767D01*
X179011011Y-85372460D01*
X179039222Y-85497639D01*
X179077461Y-85591811D01*
X179121010Y-85699059D01*
X179123266Y-85704616D01*
X179174019Y-85787438D01*
X179225657Y-85871703D01*
X179239987Y-85895088D01*
X179386250Y-86063938D01*
X179558126Y-86206632D01*
X179628595Y-86247811D01*
X179631445Y-86249476D01*
X179680169Y-86301114D01*
X179693240Y-86370897D01*
X179666509Y-86436669D01*
X179626055Y-86470027D01*
X179613607Y-86476507D01*
X179609474Y-86479610D01*
X179609471Y-86479612D01*
X179585247Y-86497800D01*
X179434965Y-86610635D01*
X179280629Y-86772138D01*
X179154743Y-86956680D01*
X179060688Y-87159305D01*
X179000989Y-87374570D01*
X178977251Y-87596695D01*
X178977548Y-87601848D01*
X178977548Y-87601851D01*
X178983011Y-87696590D01*
X178990110Y-87819715D01*
X178991247Y-87824761D01*
X178991248Y-87824767D01*
X179011011Y-87912460D01*
X179039222Y-88037639D01*
X179073708Y-88122568D01*
X179121010Y-88239059D01*
X179123266Y-88244616D01*
X179165773Y-88313982D01*
X179232347Y-88422620D01*
X179239987Y-88435088D01*
X179386250Y-88603938D01*
X179558126Y-88746632D01*
X179628595Y-88787811D01*
X179631445Y-88789476D01*
X179680169Y-88841114D01*
X179693240Y-88910897D01*
X179666509Y-88976669D01*
X179626055Y-89010027D01*
X179619038Y-89013680D01*
X179613607Y-89016507D01*
X179609474Y-89019610D01*
X179609471Y-89019612D01*
X179439100Y-89147530D01*
X179434965Y-89150635D01*
X179280629Y-89312138D01*
X179154743Y-89496680D01*
X179060688Y-89699305D01*
X179000989Y-89914570D01*
X178977251Y-90136695D01*
X178977548Y-90141848D01*
X178977548Y-90141851D01*
X178983011Y-90236590D01*
X178990110Y-90359715D01*
X178991247Y-90364761D01*
X178991248Y-90364767D01*
X179023453Y-90507668D01*
X179018917Y-90578520D01*
X178989631Y-90624464D01*
X168084500Y-101529595D01*
X168022188Y-101563621D01*
X167995405Y-101566500D01*
X150604500Y-101566500D01*
X150536379Y-101546498D01*
X150489886Y-101492842D01*
X150478500Y-101440500D01*
X150478500Y-101301866D01*
X150471745Y-101239684D01*
X150420615Y-101103295D01*
X150347370Y-101005564D01*
X150322522Y-100939059D01*
X150337575Y-100869676D01*
X150347370Y-100854435D01*
X150415229Y-100763891D01*
X150420615Y-100756705D01*
X150471745Y-100620316D01*
X150478500Y-100558134D01*
X150478500Y-98761866D01*
X150471745Y-98699684D01*
X150420615Y-98563295D01*
X150347370Y-98465564D01*
X150322522Y-98399059D01*
X150337575Y-98329676D01*
X150347370Y-98314435D01*
X150415229Y-98223891D01*
X150420615Y-98216705D01*
X150471745Y-98080316D01*
X150478500Y-98018134D01*
X150478500Y-96221866D01*
X150471745Y-96159684D01*
X150420615Y-96023295D01*
X150347370Y-95925564D01*
X150322522Y-95859059D01*
X150337575Y-95789676D01*
X150347370Y-95774435D01*
X150420615Y-95676705D01*
X150471745Y-95540316D01*
X150474173Y-95517966D01*
X158688257Y-95517966D01*
X158718565Y-95652446D01*
X158721645Y-95662275D01*
X158801770Y-95859603D01*
X158806413Y-95868794D01*
X158917694Y-96050388D01*
X158923777Y-96058699D01*
X159063213Y-96219667D01*
X159070580Y-96226883D01*
X159234434Y-96362916D01*
X159242881Y-96368831D01*
X159426756Y-96476279D01*
X159436042Y-96480729D01*
X159635001Y-96556703D01*
X159644899Y-96559579D01*
X159748250Y-96580606D01*
X159762299Y-96579410D01*
X159766000Y-96569065D01*
X159766000Y-96568517D01*
X160274000Y-96568517D01*
X160278064Y-96582359D01*
X160291478Y-96584393D01*
X160298184Y-96583534D01*
X160308262Y-96581392D01*
X160512255Y-96520191D01*
X160521842Y-96516433D01*
X160713095Y-96422739D01*
X160721945Y-96417464D01*
X160895328Y-96293792D01*
X160903200Y-96287139D01*
X161054052Y-96136812D01*
X161060730Y-96128965D01*
X161185003Y-95956020D01*
X161190313Y-95947183D01*
X161284670Y-95756267D01*
X161288469Y-95746672D01*
X161350377Y-95542910D01*
X161352555Y-95532837D01*
X161353986Y-95521962D01*
X161351775Y-95507778D01*
X161338617Y-95504000D01*
X160292115Y-95504000D01*
X160276876Y-95508475D01*
X160275671Y-95509865D01*
X160274000Y-95517548D01*
X160274000Y-96568517D01*
X159766000Y-96568517D01*
X159766000Y-95522115D01*
X159761525Y-95506876D01*
X159760135Y-95505671D01*
X159752452Y-95504000D01*
X158703225Y-95504000D01*
X158689694Y-95507973D01*
X158688257Y-95517966D01*
X150474173Y-95517966D01*
X150478500Y-95478134D01*
X150478500Y-95339500D01*
X150498502Y-95271379D01*
X150552158Y-95224886D01*
X150604500Y-95213500D01*
X152033333Y-95213500D01*
X152044516Y-95214027D01*
X152052009Y-95215702D01*
X152059935Y-95215453D01*
X152059936Y-95215453D01*
X152120086Y-95213562D01*
X152124045Y-95213500D01*
X152151956Y-95213500D01*
X152155891Y-95213003D01*
X152155956Y-95212995D01*
X152167793Y-95212062D01*
X152200051Y-95211048D01*
X152204070Y-95210922D01*
X152211989Y-95210673D01*
X152231443Y-95205021D01*
X152250800Y-95201013D01*
X152263030Y-95199468D01*
X152263031Y-95199468D01*
X152270897Y-95198474D01*
X152278268Y-95195555D01*
X152278270Y-95195555D01*
X152312012Y-95182196D01*
X152323242Y-95178351D01*
X152358083Y-95168229D01*
X152358084Y-95168229D01*
X152365693Y-95166018D01*
X152372512Y-95161985D01*
X152372517Y-95161983D01*
X152383128Y-95155707D01*
X152400876Y-95147012D01*
X152419717Y-95139552D01*
X152455487Y-95113564D01*
X152465407Y-95107048D01*
X152496635Y-95088580D01*
X152496638Y-95088578D01*
X152503462Y-95084542D01*
X152517783Y-95070221D01*
X152532817Y-95057380D01*
X152542794Y-95050131D01*
X152549207Y-95045472D01*
X152577398Y-95011395D01*
X152585388Y-95002616D01*
X158017600Y-89570405D01*
X158079912Y-89536379D01*
X158106695Y-89533500D01*
X158621527Y-89533500D01*
X158689648Y-89553502D01*
X158736141Y-89607158D01*
X158746245Y-89677432D01*
X158740745Y-89699182D01*
X158740688Y-89699305D01*
X158680989Y-89914570D01*
X158657251Y-90136695D01*
X158657548Y-90141848D01*
X158657548Y-90141851D01*
X158663011Y-90236590D01*
X158670110Y-90359715D01*
X158671247Y-90364761D01*
X158671248Y-90364767D01*
X158691011Y-90452460D01*
X158719222Y-90577639D01*
X158756711Y-90669963D01*
X158801010Y-90779059D01*
X158803266Y-90784616D01*
X158854019Y-90867438D01*
X158905657Y-90951703D01*
X158919987Y-90975088D01*
X159066250Y-91143938D01*
X159238126Y-91286632D01*
X159283421Y-91313100D01*
X159311445Y-91329476D01*
X159360169Y-91381114D01*
X159373240Y-91450897D01*
X159346509Y-91516669D01*
X159306055Y-91550027D01*
X159299038Y-91553680D01*
X159293607Y-91556507D01*
X159289474Y-91559610D01*
X159289471Y-91559612D01*
X159119100Y-91687530D01*
X159114965Y-91690635D01*
X158960629Y-91852138D01*
X158834743Y-92036680D01*
X158740688Y-92239305D01*
X158680989Y-92454570D01*
X158657251Y-92676695D01*
X158657548Y-92681848D01*
X158657548Y-92681851D01*
X158663011Y-92776590D01*
X158670110Y-92899715D01*
X158671247Y-92904761D01*
X158671248Y-92904767D01*
X158691011Y-92992460D01*
X158719222Y-93117639D01*
X158756711Y-93209963D01*
X158801010Y-93319059D01*
X158803266Y-93324616D01*
X158854019Y-93407438D01*
X158905657Y-93491703D01*
X158919987Y-93515088D01*
X159066250Y-93683938D01*
X159238126Y-93826632D01*
X159311445Y-93869476D01*
X159311955Y-93869774D01*
X159360679Y-93921412D01*
X159373750Y-93991195D01*
X159347019Y-94056967D01*
X159306562Y-94090327D01*
X159298457Y-94094546D01*
X159289738Y-94100036D01*
X159119433Y-94227905D01*
X159111726Y-94234748D01*
X158964590Y-94388717D01*
X158958104Y-94396727D01*
X158838098Y-94572649D01*
X158833000Y-94581623D01*
X158743338Y-94774783D01*
X158739775Y-94784470D01*
X158684389Y-94984183D01*
X158685912Y-94992607D01*
X158698292Y-94996000D01*
X161338344Y-94996000D01*
X161351875Y-94992027D01*
X161353180Y-94982947D01*
X161311214Y-94815875D01*
X161307894Y-94806124D01*
X161222972Y-94610814D01*
X161218105Y-94601739D01*
X161102426Y-94422926D01*
X161096136Y-94414757D01*
X160952806Y-94257240D01*
X160945273Y-94250215D01*
X160778139Y-94118222D01*
X160769556Y-94112520D01*
X160732602Y-94092120D01*
X160682631Y-94041687D01*
X160667859Y-93972245D01*
X160692975Y-93905839D01*
X160720327Y-93879232D01*
X160743797Y-93862491D01*
X160899860Y-93751173D01*
X161058096Y-93593489D01*
X161117594Y-93510689D01*
X161185435Y-93416277D01*
X161188453Y-93412077D01*
X161209089Y-93370324D01*
X161285136Y-93216453D01*
X161285137Y-93216451D01*
X161287430Y-93211811D01*
X161352370Y-92998069D01*
X161381529Y-92776590D01*
X161383156Y-92710000D01*
X161364852Y-92487361D01*
X161310431Y-92270702D01*
X161221354Y-92065840D01*
X161179771Y-92001562D01*
X161102822Y-91882617D01*
X161102820Y-91882614D01*
X161100014Y-91878277D01*
X160949670Y-91713051D01*
X160945619Y-91709852D01*
X160945615Y-91709848D01*
X160778414Y-91577800D01*
X160778410Y-91577798D01*
X160774359Y-91574598D01*
X160733053Y-91551796D01*
X160683084Y-91501364D01*
X160668312Y-91431921D01*
X160693428Y-91365516D01*
X160720780Y-91338909D01*
X160789955Y-91289567D01*
X160899860Y-91211173D01*
X160944129Y-91167059D01*
X161039234Y-91072285D01*
X161058096Y-91053489D01*
X161093586Y-91004100D01*
X161185435Y-90876277D01*
X161188453Y-90872077D01*
X161209089Y-90830324D01*
X161285136Y-90676453D01*
X161285137Y-90676451D01*
X161287430Y-90671811D01*
X161352370Y-90458069D01*
X161381529Y-90236590D01*
X161383156Y-90170000D01*
X161364852Y-89947361D01*
X161310431Y-89730702D01*
X161301318Y-89709743D01*
X161292497Y-89639297D01*
X161323163Y-89575265D01*
X161383579Y-89537977D01*
X161416867Y-89533500D01*
X168831233Y-89533500D01*
X168842416Y-89534027D01*
X168849909Y-89535702D01*
X168857835Y-89535453D01*
X168857836Y-89535453D01*
X168917986Y-89533562D01*
X168921945Y-89533500D01*
X168949856Y-89533500D01*
X168953791Y-89533003D01*
X168953856Y-89532995D01*
X168965693Y-89532062D01*
X168997951Y-89531048D01*
X169001970Y-89530922D01*
X169009889Y-89530673D01*
X169029343Y-89525021D01*
X169048700Y-89521013D01*
X169060930Y-89519468D01*
X169060931Y-89519468D01*
X169068797Y-89518474D01*
X169076168Y-89515555D01*
X169076170Y-89515555D01*
X169109912Y-89502196D01*
X169121142Y-89498351D01*
X169155983Y-89488229D01*
X169155984Y-89488229D01*
X169163593Y-89486018D01*
X169170412Y-89481985D01*
X169170417Y-89481983D01*
X169181028Y-89475707D01*
X169198776Y-89467012D01*
X169217617Y-89459552D01*
X169253387Y-89433564D01*
X169263307Y-89427048D01*
X169294535Y-89408580D01*
X169294538Y-89408578D01*
X169301362Y-89404542D01*
X169315683Y-89390221D01*
X169330717Y-89377380D01*
X169340694Y-89370131D01*
X169347107Y-89365472D01*
X169375298Y-89331395D01*
X169383288Y-89322616D01*
X178765019Y-79940886D01*
X178827331Y-79906860D01*
X178898146Y-79911925D01*
G37*
G04 #@! TD.AperFunction*
M02*
