%TF.GenerationSoftware,KiCad,Pcbnew,(6.0.8)*%
%TF.CreationDate,2024-02-14T20:35:23-05:00*%
%TF.ProjectId,boat,626f6174-2e6b-4696-9361-645f70636258,rev?*%
%TF.SameCoordinates,Original*%
%TF.FileFunction,Drillmap*%
%TF.FilePolarity,Positive*%
%FSLAX45Y45*%
G04 Gerber Fmt 4.5, Leading zero omitted, Abs format (unit mm)*
G04 Created by KiCad (PCBNEW (6.0.8)) date 2024-02-14 20:35:23*
%MOMM*%
%LPD*%
G01*
G04 APERTURE LIST*
%ADD10C,0.100000*%
%ADD11C,0.200000*%
%ADD12C,0.102000*%
G04 APERTURE END LIST*
D10*
X11811000Y-12954000D02*
G75*
G03*
X12192000Y-13335000I381000J0D01*
G01*
X19177000Y-6477000D02*
G75*
G03*
X18796000Y-6096000I-381000J0D01*
G01*
X12192000Y-6096000D02*
X18796000Y-6096000D01*
X12352000Y-6477000D02*
G75*
G03*
X12352000Y-6477000I-160000J0D01*
G01*
X19177000Y-12954000D02*
X19177000Y-6477000D01*
X18796000Y-13335000D02*
X12192000Y-13335000D01*
X12192000Y-6096000D02*
G75*
G03*
X11811000Y-6477000I0J-381000D01*
G01*
X18956000Y-12954000D02*
G75*
G03*
X18956000Y-12954000I-160000J0D01*
G01*
X11811000Y-6477000D02*
X11811000Y-12954000D01*
X18956000Y-6477000D02*
G75*
G03*
X18956000Y-6477000I-160000J0D01*
G01*
X12352000Y-12954000D02*
G75*
G03*
X12352000Y-12954000I-160000J0D01*
G01*
X18796000Y-13335000D02*
G75*
G03*
X19177000Y-12954000I0J381000D01*
G01*
D11*
D12*
X12903000Y-6613000D02*
X13005000Y-6715000D01*
X13005000Y-6613000D02*
X12903000Y-6715000D01*
X12903000Y-6867000D02*
X13005000Y-6969000D01*
X13005000Y-6867000D02*
X12903000Y-6969000D01*
X12903000Y-7121000D02*
X13005000Y-7223000D01*
X13005000Y-7121000D02*
X12903000Y-7223000D01*
X12903000Y-7375000D02*
X13005000Y-7477000D01*
X13005000Y-7375000D02*
X12903000Y-7477000D01*
X12903000Y-7629000D02*
X13005000Y-7731000D01*
X13005000Y-7629000D02*
X12903000Y-7731000D01*
X12903000Y-7883000D02*
X13005000Y-7985000D01*
X13005000Y-7883000D02*
X12903000Y-7985000D01*
X12903000Y-8137000D02*
X13005000Y-8239000D01*
X13005000Y-8137000D02*
X12903000Y-8239000D01*
X12903000Y-8391000D02*
X13005000Y-8493000D01*
X13005000Y-8391000D02*
X12903000Y-8493000D01*
X12903000Y-8645000D02*
X13005000Y-8747000D01*
X13005000Y-8645000D02*
X12903000Y-8747000D01*
X12903000Y-8899000D02*
X13005000Y-9001000D01*
X13005000Y-8899000D02*
X12903000Y-9001000D01*
X12903000Y-9153000D02*
X13005000Y-9255000D01*
X13005000Y-9153000D02*
X12903000Y-9255000D01*
X12903000Y-9407000D02*
X13005000Y-9509000D01*
X13005000Y-9407000D02*
X12903000Y-9509000D01*
X12903000Y-9661000D02*
X13005000Y-9763000D01*
X13005000Y-9661000D02*
X12903000Y-9763000D01*
X12903000Y-9915000D02*
X13005000Y-10017000D01*
X13005000Y-9915000D02*
X12903000Y-10017000D01*
X12903000Y-10169000D02*
X13005000Y-10271000D01*
X13005000Y-10169000D02*
X12903000Y-10271000D01*
X12903000Y-10423000D02*
X13005000Y-10525000D01*
X13005000Y-10423000D02*
X12903000Y-10525000D01*
X12903000Y-10677000D02*
X13005000Y-10779000D01*
X13005000Y-10677000D02*
X12903000Y-10779000D01*
X12903000Y-10931000D02*
X13005000Y-11033000D01*
X13005000Y-10931000D02*
X12903000Y-11033000D01*
X12903000Y-11185000D02*
X13005000Y-11287000D01*
X13005000Y-11185000D02*
X12903000Y-11287000D01*
X12903000Y-11439000D02*
X13005000Y-11541000D01*
X13005000Y-11439000D02*
X12903000Y-11541000D01*
X13538000Y-11416000D02*
X13640000Y-11518000D01*
X13640000Y-11416000D02*
X13538000Y-11518000D01*
X13792000Y-11416000D02*
X13894000Y-11518000D01*
X13894000Y-11416000D02*
X13792000Y-11518000D01*
X14046000Y-11416000D02*
X14148000Y-11518000D01*
X14148000Y-11416000D02*
X14046000Y-11518000D01*
X14681000Y-6613000D02*
X14783000Y-6715000D01*
X14783000Y-6613000D02*
X14681000Y-6715000D01*
X14681000Y-6867000D02*
X14783000Y-6969000D01*
X14783000Y-6867000D02*
X14681000Y-6969000D01*
X14681000Y-7121000D02*
X14783000Y-7223000D01*
X14783000Y-7121000D02*
X14681000Y-7223000D01*
X14681000Y-7375000D02*
X14783000Y-7477000D01*
X14783000Y-7375000D02*
X14681000Y-7477000D01*
X14681000Y-7629000D02*
X14783000Y-7731000D01*
X14783000Y-7629000D02*
X14681000Y-7731000D01*
X14681000Y-7883000D02*
X14783000Y-7985000D01*
X14783000Y-7883000D02*
X14681000Y-7985000D01*
X14681000Y-8137000D02*
X14783000Y-8239000D01*
X14783000Y-8137000D02*
X14681000Y-8239000D01*
X14681000Y-8391000D02*
X14783000Y-8493000D01*
X14783000Y-8391000D02*
X14681000Y-8493000D01*
X14681000Y-8645000D02*
X14783000Y-8747000D01*
X14783000Y-8645000D02*
X14681000Y-8747000D01*
X14681000Y-8899000D02*
X14783000Y-9001000D01*
X14783000Y-8899000D02*
X14681000Y-9001000D01*
X14681000Y-9153000D02*
X14783000Y-9255000D01*
X14783000Y-9153000D02*
X14681000Y-9255000D01*
X14681000Y-9407000D02*
X14783000Y-9509000D01*
X14783000Y-9407000D02*
X14681000Y-9509000D01*
X14681000Y-9661000D02*
X14783000Y-9763000D01*
X14783000Y-9661000D02*
X14681000Y-9763000D01*
X14681000Y-9915000D02*
X14783000Y-10017000D01*
X14783000Y-9915000D02*
X14681000Y-10017000D01*
X14681000Y-10169000D02*
X14783000Y-10271000D01*
X14783000Y-10169000D02*
X14681000Y-10271000D01*
X14681000Y-10423000D02*
X14783000Y-10525000D01*
X14783000Y-10423000D02*
X14681000Y-10525000D01*
X14681000Y-10677000D02*
X14783000Y-10779000D01*
X14783000Y-10677000D02*
X14681000Y-10779000D01*
X14681000Y-10931000D02*
X14783000Y-11033000D01*
X14783000Y-10931000D02*
X14681000Y-11033000D01*
X14681000Y-11185000D02*
X14783000Y-11287000D01*
X14783000Y-11185000D02*
X14681000Y-11287000D01*
X14681000Y-11439000D02*
X14783000Y-11541000D01*
X14783000Y-11439000D02*
X14681000Y-11541000D01*
X15951000Y-7696000D02*
X16053000Y-7798000D01*
X16053000Y-7696000D02*
X15951000Y-7798000D01*
X15951000Y-7950000D02*
X16053000Y-8052000D01*
X16053000Y-7950000D02*
X15951000Y-8052000D01*
X15951000Y-8204000D02*
X16053000Y-8306000D01*
X16053000Y-8204000D02*
X15951000Y-8306000D01*
X15951000Y-8458000D02*
X16053000Y-8560000D01*
X16053000Y-8458000D02*
X15951000Y-8560000D01*
X15951000Y-8712000D02*
X16053000Y-8814000D01*
X16053000Y-8712000D02*
X15951000Y-8814000D01*
X15951000Y-8966000D02*
X16053000Y-9068000D01*
X16053000Y-8966000D02*
X15951000Y-9068000D01*
X15951000Y-9220000D02*
X16053000Y-9322000D01*
X16053000Y-9220000D02*
X15951000Y-9322000D01*
X15951000Y-9474000D02*
X16053000Y-9576000D01*
X16053000Y-9474000D02*
X15951000Y-9576000D01*
X15951000Y-10871000D02*
X16053000Y-10973000D01*
X16053000Y-10871000D02*
X15951000Y-10973000D01*
X15951000Y-11125000D02*
X16053000Y-11227000D01*
X16053000Y-11125000D02*
X15951000Y-11227000D01*
X15951000Y-11379000D02*
X16053000Y-11481000D01*
X16053000Y-11379000D02*
X15951000Y-11481000D01*
X15951000Y-11633000D02*
X16053000Y-11735000D01*
X16053000Y-11633000D02*
X15951000Y-11735000D01*
X15951000Y-11887000D02*
X16053000Y-11989000D01*
X16053000Y-11887000D02*
X15951000Y-11989000D01*
X15951000Y-12141000D02*
X16053000Y-12243000D01*
X16053000Y-12141000D02*
X15951000Y-12243000D01*
X17983000Y-7696000D02*
X18085000Y-7798000D01*
X18085000Y-7696000D02*
X17983000Y-7798000D01*
X17983000Y-7950000D02*
X18085000Y-8052000D01*
X18085000Y-7950000D02*
X17983000Y-8052000D01*
X17983000Y-8204000D02*
X18085000Y-8306000D01*
X18085000Y-8204000D02*
X17983000Y-8306000D01*
X17983000Y-8458000D02*
X18085000Y-8560000D01*
X18085000Y-8458000D02*
X17983000Y-8560000D01*
X17983000Y-8712000D02*
X18085000Y-8814000D01*
X18085000Y-8712000D02*
X17983000Y-8814000D01*
X17983000Y-8966000D02*
X18085000Y-9068000D01*
X18085000Y-8966000D02*
X17983000Y-9068000D01*
X17983000Y-9220000D02*
X18085000Y-9322000D01*
X18085000Y-9220000D02*
X17983000Y-9322000D01*
X17983000Y-9474000D02*
X18085000Y-9576000D01*
X18085000Y-9474000D02*
X17983000Y-9576000D01*
D11*
X12063619Y-13650476D02*
X12063619Y-13450476D01*
X12111238Y-13450476D01*
X12139809Y-13460000D01*
X12158857Y-13479048D01*
X12168381Y-13498095D01*
X12177905Y-13536190D01*
X12177905Y-13564762D01*
X12168381Y-13602857D01*
X12158857Y-13621905D01*
X12139809Y-13640952D01*
X12111238Y-13650476D01*
X12063619Y-13650476D01*
X12263619Y-13650476D02*
X12263619Y-13517143D01*
X12263619Y-13555238D02*
X12273143Y-13536190D01*
X12282667Y-13526667D01*
X12301714Y-13517143D01*
X12320762Y-13517143D01*
X12387428Y-13650476D02*
X12387428Y-13517143D01*
X12387428Y-13450476D02*
X12377905Y-13460000D01*
X12387428Y-13469524D01*
X12396952Y-13460000D01*
X12387428Y-13450476D01*
X12387428Y-13469524D01*
X12511238Y-13650476D02*
X12492190Y-13640952D01*
X12482667Y-13621905D01*
X12482667Y-13450476D01*
X12616000Y-13650476D02*
X12596952Y-13640952D01*
X12587428Y-13621905D01*
X12587428Y-13450476D01*
X12844571Y-13650476D02*
X12844571Y-13450476D01*
X12911238Y-13593333D01*
X12977905Y-13450476D01*
X12977905Y-13650476D01*
X13158857Y-13650476D02*
X13158857Y-13545714D01*
X13149333Y-13526667D01*
X13130286Y-13517143D01*
X13092190Y-13517143D01*
X13073143Y-13526667D01*
X13158857Y-13640952D02*
X13139809Y-13650476D01*
X13092190Y-13650476D01*
X13073143Y-13640952D01*
X13063619Y-13621905D01*
X13063619Y-13602857D01*
X13073143Y-13583809D01*
X13092190Y-13574286D01*
X13139809Y-13574286D01*
X13158857Y-13564762D01*
X13254095Y-13517143D02*
X13254095Y-13717143D01*
X13254095Y-13526667D02*
X13273143Y-13517143D01*
X13311238Y-13517143D01*
X13330286Y-13526667D01*
X13339809Y-13536190D01*
X13349333Y-13555238D01*
X13349333Y-13612381D01*
X13339809Y-13631428D01*
X13330286Y-13640952D01*
X13311238Y-13650476D01*
X13273143Y-13650476D01*
X13254095Y-13640952D01*
X13435048Y-13631428D02*
X13444571Y-13640952D01*
X13435048Y-13650476D01*
X13425524Y-13640952D01*
X13435048Y-13631428D01*
X13435048Y-13650476D01*
X13435048Y-13526667D02*
X13444571Y-13536190D01*
X13435048Y-13545714D01*
X13425524Y-13536190D01*
X13435048Y-13526667D01*
X13435048Y-13545714D01*
D12*
X11704000Y-13929000D02*
X11806000Y-14031000D01*
X11806000Y-13929000D02*
X11704000Y-14031000D01*
D11*
X12168381Y-14070476D02*
X12054095Y-14070476D01*
X12111238Y-14070476D02*
X12111238Y-13870476D01*
X12092190Y-13899048D01*
X12073143Y-13918095D01*
X12054095Y-13927619D01*
X12254095Y-14051428D02*
X12263619Y-14060952D01*
X12254095Y-14070476D01*
X12244571Y-14060952D01*
X12254095Y-14051428D01*
X12254095Y-14070476D01*
X12387428Y-13870476D02*
X12406476Y-13870476D01*
X12425524Y-13880000D01*
X12435048Y-13889524D01*
X12444571Y-13908571D01*
X12454095Y-13946667D01*
X12454095Y-13994286D01*
X12444571Y-14032381D01*
X12435048Y-14051428D01*
X12425524Y-14060952D01*
X12406476Y-14070476D01*
X12387428Y-14070476D01*
X12368381Y-14060952D01*
X12358857Y-14051428D01*
X12349333Y-14032381D01*
X12339809Y-13994286D01*
X12339809Y-13946667D01*
X12349333Y-13908571D01*
X12358857Y-13889524D01*
X12368381Y-13880000D01*
X12387428Y-13870476D01*
X12530286Y-13889524D02*
X12539809Y-13880000D01*
X12558857Y-13870476D01*
X12606476Y-13870476D01*
X12625524Y-13880000D01*
X12635048Y-13889524D01*
X12644571Y-13908571D01*
X12644571Y-13927619D01*
X12635048Y-13956190D01*
X12520762Y-14070476D01*
X12644571Y-14070476D01*
X12768381Y-13870476D02*
X12787428Y-13870476D01*
X12806476Y-13880000D01*
X12816000Y-13889524D01*
X12825524Y-13908571D01*
X12835048Y-13946667D01*
X12835048Y-13994286D01*
X12825524Y-14032381D01*
X12816000Y-14051428D01*
X12806476Y-14060952D01*
X12787428Y-14070476D01*
X12768381Y-14070476D01*
X12749333Y-14060952D01*
X12739809Y-14051428D01*
X12730286Y-14032381D01*
X12720762Y-13994286D01*
X12720762Y-13946667D01*
X12730286Y-13908571D01*
X12739809Y-13889524D01*
X12749333Y-13880000D01*
X12768381Y-13870476D01*
X12920762Y-14070476D02*
X12920762Y-13937143D01*
X12920762Y-13956190D02*
X12930286Y-13946667D01*
X12949333Y-13937143D01*
X12977905Y-13937143D01*
X12996952Y-13946667D01*
X13006476Y-13965714D01*
X13006476Y-14070476D01*
X13006476Y-13965714D02*
X13016000Y-13946667D01*
X13035048Y-13937143D01*
X13063619Y-13937143D01*
X13082667Y-13946667D01*
X13092190Y-13965714D01*
X13092190Y-14070476D01*
X13187428Y-14070476D02*
X13187428Y-13937143D01*
X13187428Y-13956190D02*
X13196952Y-13946667D01*
X13216000Y-13937143D01*
X13244571Y-13937143D01*
X13263619Y-13946667D01*
X13273143Y-13965714D01*
X13273143Y-14070476D01*
X13273143Y-13965714D02*
X13282667Y-13946667D01*
X13301714Y-13937143D01*
X13330286Y-13937143D01*
X13349333Y-13946667D01*
X13358857Y-13965714D01*
X13358857Y-14070476D01*
X13749333Y-13860952D02*
X13577905Y-14118095D01*
X14006476Y-13870476D02*
X14025524Y-13870476D01*
X14044571Y-13880000D01*
X14054095Y-13889524D01*
X14063619Y-13908571D01*
X14073143Y-13946667D01*
X14073143Y-13994286D01*
X14063619Y-14032381D01*
X14054095Y-14051428D01*
X14044571Y-14060952D01*
X14025524Y-14070476D01*
X14006476Y-14070476D01*
X13987428Y-14060952D01*
X13977905Y-14051428D01*
X13968381Y-14032381D01*
X13958857Y-13994286D01*
X13958857Y-13946667D01*
X13968381Y-13908571D01*
X13977905Y-13889524D01*
X13987428Y-13880000D01*
X14006476Y-13870476D01*
X14158857Y-14051428D02*
X14168381Y-14060952D01*
X14158857Y-14070476D01*
X14149333Y-14060952D01*
X14158857Y-14051428D01*
X14158857Y-14070476D01*
X14292190Y-13870476D02*
X14311238Y-13870476D01*
X14330286Y-13880000D01*
X14339809Y-13889524D01*
X14349333Y-13908571D01*
X14358857Y-13946667D01*
X14358857Y-13994286D01*
X14349333Y-14032381D01*
X14339809Y-14051428D01*
X14330286Y-14060952D01*
X14311238Y-14070476D01*
X14292190Y-14070476D01*
X14273143Y-14060952D01*
X14263619Y-14051428D01*
X14254095Y-14032381D01*
X14244571Y-13994286D01*
X14244571Y-13946667D01*
X14254095Y-13908571D01*
X14263619Y-13889524D01*
X14273143Y-13880000D01*
X14292190Y-13870476D01*
X14530286Y-13937143D02*
X14530286Y-14070476D01*
X14482667Y-13860952D02*
X14435048Y-14003809D01*
X14558857Y-14003809D01*
X14673143Y-13870476D02*
X14692190Y-13870476D01*
X14711238Y-13880000D01*
X14720762Y-13889524D01*
X14730286Y-13908571D01*
X14739809Y-13946667D01*
X14739809Y-13994286D01*
X14730286Y-14032381D01*
X14720762Y-14051428D01*
X14711238Y-14060952D01*
X14692190Y-14070476D01*
X14673143Y-14070476D01*
X14654095Y-14060952D01*
X14644571Y-14051428D01*
X14635048Y-14032381D01*
X14625524Y-13994286D01*
X14625524Y-13946667D01*
X14635048Y-13908571D01*
X14644571Y-13889524D01*
X14654095Y-13880000D01*
X14673143Y-13870476D01*
X14816000Y-13889524D02*
X14825524Y-13880000D01*
X14844571Y-13870476D01*
X14892190Y-13870476D01*
X14911238Y-13880000D01*
X14920762Y-13889524D01*
X14930286Y-13908571D01*
X14930286Y-13927619D01*
X14920762Y-13956190D01*
X14806476Y-14070476D01*
X14930286Y-14070476D01*
X15006476Y-13870476D02*
X15006476Y-13908571D01*
X15082667Y-13870476D02*
X15082667Y-13908571D01*
X15377905Y-14146667D02*
X15368381Y-14137143D01*
X15349333Y-14108571D01*
X15339809Y-14089524D01*
X15330286Y-14060952D01*
X15320762Y-14013333D01*
X15320762Y-13975238D01*
X15330286Y-13927619D01*
X15339809Y-13899048D01*
X15349333Y-13880000D01*
X15368381Y-13851428D01*
X15377905Y-13841905D01*
X15539809Y-13870476D02*
X15501714Y-13870476D01*
X15482667Y-13880000D01*
X15473143Y-13889524D01*
X15454095Y-13918095D01*
X15444571Y-13956190D01*
X15444571Y-14032381D01*
X15454095Y-14051428D01*
X15463619Y-14060952D01*
X15482667Y-14070476D01*
X15520762Y-14070476D01*
X15539809Y-14060952D01*
X15549333Y-14051428D01*
X15558857Y-14032381D01*
X15558857Y-13984762D01*
X15549333Y-13965714D01*
X15539809Y-13956190D01*
X15520762Y-13946667D01*
X15482667Y-13946667D01*
X15463619Y-13956190D01*
X15454095Y-13965714D01*
X15444571Y-13984762D01*
X15739809Y-13870476D02*
X15644571Y-13870476D01*
X15635048Y-13965714D01*
X15644571Y-13956190D01*
X15663619Y-13946667D01*
X15711238Y-13946667D01*
X15730286Y-13956190D01*
X15739809Y-13965714D01*
X15749333Y-13984762D01*
X15749333Y-14032381D01*
X15739809Y-14051428D01*
X15730286Y-14060952D01*
X15711238Y-14070476D01*
X15663619Y-14070476D01*
X15644571Y-14060952D01*
X15635048Y-14051428D01*
X15987428Y-14070476D02*
X15987428Y-13870476D01*
X16073143Y-14070476D02*
X16073143Y-13965714D01*
X16063619Y-13946667D01*
X16044571Y-13937143D01*
X16016000Y-13937143D01*
X15996952Y-13946667D01*
X15987428Y-13956190D01*
X16196952Y-14070476D02*
X16177905Y-14060952D01*
X16168381Y-14051428D01*
X16158857Y-14032381D01*
X16158857Y-13975238D01*
X16168381Y-13956190D01*
X16177905Y-13946667D01*
X16196952Y-13937143D01*
X16225524Y-13937143D01*
X16244571Y-13946667D01*
X16254095Y-13956190D01*
X16263619Y-13975238D01*
X16263619Y-14032381D01*
X16254095Y-14051428D01*
X16244571Y-14060952D01*
X16225524Y-14070476D01*
X16196952Y-14070476D01*
X16377905Y-14070476D02*
X16358857Y-14060952D01*
X16349333Y-14041905D01*
X16349333Y-13870476D01*
X16530286Y-14060952D02*
X16511238Y-14070476D01*
X16473143Y-14070476D01*
X16454095Y-14060952D01*
X16444571Y-14041905D01*
X16444571Y-13965714D01*
X16454095Y-13946667D01*
X16473143Y-13937143D01*
X16511238Y-13937143D01*
X16530286Y-13946667D01*
X16539809Y-13965714D01*
X16539809Y-13984762D01*
X16444571Y-14003809D01*
X16616000Y-14060952D02*
X16635048Y-14070476D01*
X16673143Y-14070476D01*
X16692190Y-14060952D01*
X16701714Y-14041905D01*
X16701714Y-14032381D01*
X16692190Y-14013333D01*
X16673143Y-14003809D01*
X16644571Y-14003809D01*
X16625524Y-13994286D01*
X16616000Y-13975238D01*
X16616000Y-13965714D01*
X16625524Y-13946667D01*
X16644571Y-13937143D01*
X16673143Y-13937143D01*
X16692190Y-13946667D01*
X16768381Y-14146667D02*
X16777905Y-14137143D01*
X16796952Y-14108571D01*
X16806476Y-14089524D01*
X16816000Y-14060952D01*
X16825524Y-14013333D01*
X16825524Y-13975238D01*
X16816000Y-13927619D01*
X16806476Y-13899048D01*
X16796952Y-13880000D01*
X16777905Y-13851428D01*
X16768381Y-13841905D01*
M02*
